<?xml version="1.0" encoding="UTF-8" standalone="no"?>
<svg
   xmlns:dc="http://purl.org/dc/elements/1.1/"
   xmlns:cc="http://creativecommons.org/ns#"
   xmlns:rdf="http://www.w3.org/1999/02/22-rdf-syntax-ns#"
   xmlns:svg="http://www.w3.org/2000/svg"
   xmlns="http://www.w3.org/2000/svg"
   xmlns:sodipodi="http://sodipodi.sourceforge.net/DTD/sodipodi-0.dtd"
   xmlns:inkscape="http://www.inkscape.org/namespaces/inkscape"
   style="fill-opacity:1; color-rendering:auto; color-interpolation:auto; stroke:black; text-rendering:auto; stroke-linecap:square; stroke-miterlimit:10; stroke-opacity:1; shape-rendering:auto; fill:black; stroke-dasharray:none; font-weight:normal; stroke-width:1; font-family:'Dialog'; font-style:normal; stroke-linejoin:miter; font-size:12; stroke-dashoffset:0; image-rendering:auto;"
   width="694"
   height="225"
   id="svg11998"
   version="1.1"
   inkscape:version="0.48.0 r9654"
   sodipodi:docname="Ampel-platzieren.svg"
   inkscape:export-filename="C:\Users\m\Documents\svn\SWT\Projekt\Design-Dokument\Sequenzdiagramm\Ampel-platzieren.svg.png"
   inkscape:export-xdpi="90"
   inkscape:export-ydpi="90">
  <metadata
     id="metadata12262">
    <rdf:RDF>
      <cc:Work
         rdf:about="">
        <dc:format>image/svg+xml</dc:format>
        <dc:type
           rdf:resource="http://purl.org/dc/dcmitype/StillImage" />
        <dc:title></dc:title>
      </cc:Work>
    </rdf:RDF>
  </metadata>
  <sodipodi:namedview
     pagecolor="#ffffff"
     bordercolor="#666666"
     borderopacity="1"
     objecttolerance="10"
     gridtolerance="10"
     guidetolerance="10"
     inkscape:pageopacity="0"
     inkscape:pageshadow="2"
     inkscape:window-width="640"
     inkscape:window-height="480"
     id="namedview12260"
     showgrid="false"
     inkscape:zoom="0.73487032"
     inkscape:cx="347"
     inkscape:cy="112.5"
     inkscape:window-x="225"
     inkscape:window-y="225"
     inkscape:window-maximized="0"
     inkscape:current-layer="svg11998" />
  <!--Generated by the Batik Graphics2D SVG Generator-->
  <defs
     id="genericDefs">
    <defs
       id="defs1">
      <clipPath
         id="clipPath1"
         clipPathUnits="userSpaceOnUse">
        <path
           id="path12005"
           d="M-3 -3 L67 -3 L67 177 L-3 177 L-3 -3 Z" />
      </clipPath>
      <clipPath
         id="clipPath2"
         clipPathUnits="userSpaceOnUse">
        <path
           id="path12008"
           d="M-3 -3 L147 -3 L147 177 L-3 177 L-3 -3 Z" />
      </clipPath>
      <clipPath
         id="clipPath3"
         clipPathUnits="userSpaceOnUse">
        <path
           id="path12011"
           d="M-3 -3 L107 -3 L107 177 L-3 177 L-3 -3 Z" />
      </clipPath>
      <clipPath
         id="clipPath4"
         clipPathUnits="userSpaceOnUse">
        <path
           id="path12014"
           d="M-3 -3 L167 -3 L167 177 L-3 177 L-3 -3 Z" />
      </clipPath>
      <clipPath
         id="clipPath5"
         clipPathUnits="userSpaceOnUse">
        <path
           id="path12017"
           d="M-3 -3 L15 -3 L15 37 L-3 37 L-3 -3 Z" />
      </clipPath>
      <clipPath
         id="clipPath6"
         clipPathUnits="userSpaceOnUse">
        <path
           id="path12020"
           d="M-3 -3 L15 -3 L15 57 L-3 57 L-3 -3 Z" />
      </clipPath>
      <clipPath
         id="clipPath7"
         clipPathUnits="userSpaceOnUse">
        <path
           id="path12023"
           d="M-3 -3 L15 -3 L15 19 L-3 19 L-3 -3 Z" />
      </clipPath>
      <clipPath
         id="clipPath8"
         clipPathUnits="userSpaceOnUse">
        <path
           id="path12026"
           d="M-3 -3 L78 -3 L78 70 L-3 70 L-3 -3 Z" />
      </clipPath>
      <clipPath
         id="clipPath9"
         clipPathUnits="userSpaceOnUse">
        <path
           id="path12029"
           d="M618.7521 366.8336 L618.7521 615.2563 L899.4955 615.2563 L899.4955 366.8336 Z" />
      </clipPath>
      <clipPath
         id="clipPath10"
         clipPathUnits="userSpaceOnUse">
        <path
           id="path12032"
           d="M0 0 L0 63 L71 63 L71 0 Z" />
      </clipPath>
      <clipPath
         id="clipPath11"
         clipPathUnits="userSpaceOnUse">
        <path
           id="path12035"
           d="M-160 -15 L320 -15 L320 30 L-160 30 L-160 -15 Z" />
      </clipPath>
      <clipPath
         id="clipPath12"
         clipPathUnits="userSpaceOnUse">
        <path
           id="path12038"
           d="M-100 -15 L200 -15 L200 30 L-100 30 L-100 -15 Z" />
      </clipPath>
      <clipPath
         id="clipPath13"
         clipPathUnits="userSpaceOnUse">
        <path
           id="path12041"
           d="M-140 -15 L280 -15 L280 30 L-140 30 L-140 -15 Z" />
      </clipPath>
      <clipPath
         id="clipPath14"
         clipPathUnits="userSpaceOnUse">
        <path
           id="path12044"
           d="M-49 -14 L98 -14 L98 28 L-49 28 L-49 -14 Z" />
      </clipPath>
      <clipPath
         id="clipPath15"
         clipPathUnits="userSpaceOnUse">
        <path
           id="path12047"
           d="M0 0 L276 0 L276 104 L0 104 L0 0 Z" />
      </clipPath>
      <clipPath
         id="clipPath16"
         clipPathUnits="userSpaceOnUse">
        <path
           id="path12050"
           d="M0 0 L266 0 L266 104 L0 104 L0 0 Z" />
      </clipPath>
      <clipPath
         id="clipPath17"
         clipPathUnits="userSpaceOnUse">
        <path
           id="path12053"
           d="M0 0 L326 0 L326 104 L0 104 L0 0 Z" />
      </clipPath>
      <clipPath
         id="clipPath18"
         clipPathUnits="userSpaceOnUse">
        <path
           id="path12056"
           d="M-96 -16 L192 -16 L192 32 L-96 32 L-96 -16 Z" />
      </clipPath>
      <clipPath
         id="clipPath19"
         clipPathUnits="userSpaceOnUse">
        <path
           id="path12059"
           d="M-111 -15 L222 -15 L222 30 L-111 30 L-111 -15 Z" />
      </clipPath>
      <clipPath
         id="clipPath20"
         clipPathUnits="userSpaceOnUse">
        <path
           id="path12062"
           d="M-155 -16 L310 -16 L310 32 L-155 32 L-155 -16 Z" />
      </clipPath>
    </defs>
  </defs>
  <g
     id="g12064"
     style="fill:#ffffff;stroke:#ffffff">
    <rect
       id="rect12066"
       height="225"
       style="stroke:none"
       width="694"
       y="0"
       x="0" />
  </g>
  <g
     id="g12068"
     style="font-size:11px;fill:#7acff5;stroke:#7acff5;font-family:sans-serif"
     transform="translate(0,2)">
    <circle
       sodipodi:ry="5"
       sodipodi:rx="5"
       sodipodi:cy="5"
       sodipodi:cx="30"
       d="m 35,5 c 0,2.7614237 -2.238576,5 -5,5 -2.761424,0 -5,-2.2385763 -5,-5 0,-2.7614237 2.238576,-5 5,-5 2.761424,0 5,2.2385763 5,5 z"
       clip-path="url(#clipPath1)"
       id="circle12070"
       cy="5"
       cx="30"
       r="5"
       style="stroke:none" />
    <rect
       clip-path="url(#clipPath1)"
       id="rect12072"
       height="120"
       style="stroke:none"
       width="8"
       y="49"
       x="26" />
  </g>
  <g
     id="g12074"
     style="font-size:11px;stroke-linecap:butt;stroke-linejoin:round;stroke-miterlimit:0;font-family:sans-serif"
     transform="translate(0,2)">
    <circle
       sodipodi:ry="5"
       sodipodi:rx="5"
       sodipodi:cy="5"
       sodipodi:cx="30"
       d="m 35,5 c 0,2.7614237 -2.238576,5 -5,5 -2.761424,0 -5,-2.2385763 -5,-5 0,-2.7614237 2.238576,-5 5,-5 2.761424,0 5,2.2385763 5,5 z"
       clip-path="url(#clipPath1)"
       id="circle12076"
       cy="5"
       cx="30"
       r="5"
       style="fill:none" />
    <rect
       clip-path="url(#clipPath1)"
       id="rect12078"
       height="120"
       style="fill:none"
       width="8"
       y="49"
       x="26" />
    <line
       clip-path="url(#clipPath1)"
       id="line12080"
       y2="25"
       style="fill:none"
       y1="10"
       x2="30"
       x1="30" />
    <line
       clip-path="url(#clipPath1)"
       id="line12082"
       y2="36"
       style="fill:none"
       y1="25"
       x2="21"
       x1="30" />
    <line
       clip-path="url(#clipPath1)"
       id="line12084"
       y2="36"
       style="fill:none"
       y1="25"
       x2="39"
       x1="30" />
    <line
       clip-path="url(#clipPath1)"
       id="line12086"
       y2="16"
       style="fill:none"
       y1="16"
       x2="39"
       x1="21" />
  </g>
  <g
     id="g12088"
     style="font-size:11px;fill:#7acff5;stroke:#7acff5;font-family:sans-serif"
     transform="translate(140,2)">
    <rect
       clip-path="url(#clipPath2)"
       id="rect12090"
       height="35"
       style="stroke:none"
       width="139"
       y="0"
       x="0" />
  </g>
  <g
     id="g12092"
     style="font-size:11px;stroke-linecap:butt;stroke-linejoin:round;stroke-miterlimit:0;font-family:sans-serif"
     transform="translate(140,2)">
    <rect
       clip-path="url(#clipPath2)"
       id="rect12094"
       height="35"
       style="fill:none"
       width="139"
       y="0"
       x="0" />
    <line
       clip-path="url(#clipPath2)"
       id="line12096"
       y2="170"
       style="fill:none;stroke-linejoin:bevel;stroke-dasharray:8, 3"
       y1="35"
       x2="69"
       x1="69" />
  </g>
  <g
     id="g12098"
     style="font-size:11px;fill:#7acff5;stroke:#7acff5;font-family:sans-serif"
     transform="translate(390,2)">
    <rect
       clip-path="url(#clipPath3)"
       id="rect12100"
       height="35"
       style="stroke:none"
       width="99"
       y="0"
       x="0" />
  </g>
  <g
     id="g12102"
     style="font-size:11px;stroke-linecap:butt;stroke-linejoin:round;stroke-miterlimit:0;font-family:sans-serif"
     transform="translate(390,2)">
    <rect
       clip-path="url(#clipPath3)"
       id="rect12104"
       height="35"
       style="fill:none"
       width="99"
       y="0"
       x="0" />
    <line
       clip-path="url(#clipPath3)"
       id="line12106"
       y2="170"
       style="fill:none;stroke-linejoin:bevel;stroke-dasharray:8, 3"
       y1="35"
       x2="49"
       x1="49" />
  </g>
  <g
     id="g12108"
     style="font-size:11px;fill:#7acff5;stroke:#7acff5;font-family:sans-serif"
     transform="translate(530,2)">
    <rect
       clip-path="url(#clipPath4)"
       id="rect12110"
       height="35"
       style="stroke:none"
       width="159"
       y="0"
       x="0" />
  </g>
  <g
     id="g12112"
     style="font-size:11px;stroke-linecap:butt;stroke-linejoin:round;stroke-miterlimit:0;font-family:sans-serif"
     transform="translate(530,2)">
    <rect
       clip-path="url(#clipPath4)"
       id="rect12114"
       height="35"
       style="fill:none"
       width="159"
       y="0"
       x="0" />
    <line
       clip-path="url(#clipPath4)"
       id="line12116"
       y2="170"
       style="fill:none;stroke-linejoin:bevel;stroke-dasharray:8, 3"
       y1="35"
       x2="79"
       x1="79" />
  </g>
  <g
     id="g12118"
     style="font-size:11px;fill:#7acff5;stroke:#7acff5;font-family:sans-serif"
     transform="translate(436,82)">
    <rect
       clip-path="url(#clipPath5)"
       id="rect12120"
       height="30"
       style="stroke:none"
       width="8"
       y="0"
       x="0" />
  </g>
  <g
     id="g12122"
     style="font-size:11px;stroke-linecap:butt;stroke-linejoin:round;stroke-miterlimit:0;font-family:sans-serif"
     transform="translate(436,82)">
    <rect
       clip-path="url(#clipPath5)"
       id="rect12124"
       height="30"
       style="fill:none"
       width="8"
       y="0"
       x="0" />
  </g>
  <g
     id="g12126"
     style="font-size:11px;fill:#7acff5;stroke:#7acff5;font-family:sans-serif"
     transform="translate(606,102)">
    <rect
       clip-path="url(#clipPath6)"
       id="rect12128"
       height="50"
       style="stroke:none"
       width="8"
       y="0"
       x="0" />
  </g>
  <g
     id="g12130"
     style="font-size:11px;stroke-linecap:butt;stroke-linejoin:round;stroke-miterlimit:0;font-family:sans-serif"
     transform="translate(606,102)">
    <rect
       clip-path="url(#clipPath6)"
       id="rect12132"
       height="50"
       style="fill:none"
       width="8"
       y="0"
       x="0" />
  </g>
  <g
     id="g12134"
     style="font-size:11px;fill:#7acff5;stroke:#7acff5;font-family:sans-serif"
     transform="translate(206,72)">
    <rect
       clip-path="url(#clipPath7)"
       id="rect12136"
       height="12"
       style="stroke:none"
       width="8"
       y="0"
       x="0" />
  </g>
  <g
     id="g12138"
     style="font-size:11px;stroke-linecap:butt;stroke-linejoin:round;stroke-miterlimit:0;font-family:sans-serif"
     transform="translate(206,72)">
    <rect
       clip-path="url(#clipPath7)"
       id="rect12140"
       height="12"
       style="fill:none"
       width="8"
       y="0"
       x="0" />
  </g>
  <g
     id="g12142"
     style="font-size:11px;font-family:sans-serif"
     transform="matrix(0.2529,0,0,0.2536,419.5176,64.971)">
    <path
       inkscape:connector-curvature="0"
       clip-path="url(#clipPath9)"
       id="path12144"
       style="stroke:none"
       d="m 674,560 c 14.7658,-17.9796 50.4137,-53.9386 70.0991,-71.9182 C 726.6972,471.5614 694.5685,438.5204 680.6624,422 c 6.2027,0 19.7178,0 26.9494,0 8.6492,8.8486 26.7431,26.5457 36.064,35.3943 q 11.7673,11.0136 16.7472,16.944 6.9654,-7.5307 16.4367,-15.7203 c 10.2855,-9.1545 30.0876,-27.4635 39.4356,-36.618 6.3961,0 18.3266,0 23.7994,0 -13.9451,16.2616 -46.6443,48.7848 -64.5018,65.0464 C 794.8073,505.2848 829.572,541.7616 844,560 c -5.9385,0 -19.1586,0 -26.3495,0 -11.6775,-12.308 -36.6896,-36.924 -49.6944,-49.2319 q -4.4037,-4.2361 -9.0984,-9.2251 -6.9683,7.5307 -9.9484,10.3547 c -12.9525,12.0256 -37.8242,36.0767 -49.4164,48.1023 -6.9464,0 -19.7344,0 -25.4929,0 0,0 0,0 0,0" />
  </g>
  <g
     id="g12146"
     style="font-size:11px;stroke-linecap:butt;stroke-linejoin:bevel;stroke-miterlimit:1;font-family:sans-serif"
     transform="translate(576,158)">
    <path
       inkscape:connector-curvature="0"
       clip-path="url(#clipPath10)"
       id="path12148"
       style="fill:none"
       d="M 14,49 C 17.7349,44.44 26.7517,35.3199 31.731,30.7599 27.3293,26.5699 19.2026,18.19 15.6852,14 c 1.5689,0 4.9874,0 6.8166,0 2.1878,2.2442 6.7644,6.7326 9.1221,8.9768 q 2.9764,2.7933 4.236,4.2974 1.7619,-1.9099 4.1575,-3.987 c 2.6017,-2.3218 7.6104,-6.9654 9.975,-9.2872 1.6178,0 4.6355,0 6.0198,0 C 52.4849,18.1243 44.2139,26.373 39.697,30.4973 44.5571,35.123 53.3506,44.3743 57,49 55.4979,49 52.154,49 50.3351,49 47.3814,45.8784 41.0548,39.6352 37.7654,36.5136 q -1.1139,-1.0743 -2.3014,-2.3397 -1.7626,1.91 -2.5164,2.6262 C 29.6714,39.8501 23.3803,45.95 20.4482,49 18.6912,49 15.4566,49 14,49 c 0,0 0,0 0,0" />
  </g>
  <g
     id="g12150"
     transform="translate(530,2)"
     style="font-size:11px;font-family:sans-serif">
    <text
       clip-path="url(#clipPath11)"
       id="text12152"
       xml:space="preserve"
       style="stroke:none"
       y="12"
       x="14">controller : WorldController</text>
  </g>
  <g
     id="g12154"
     transform="translate(390,2)"
     style="font-size:11px;font-family:sans-serif">
    <text
       clip-path="url(#clipPath12)"
       id="text12156"
       xml:space="preserve"
       style="stroke:none"
       y="12"
       x="8">view : WorldView</text>
  </g>
  <g
     id="g12158"
     transform="translate(140,2)"
     style="font-size:11px;font-family:sans-serif">
    <text
       clip-path="url(#clipPath13)"
       id="text12160"
       xml:space="preserve"
       style="stroke:none"
       y="12"
       x="23">view : ToolbarView</text>
  </g>
  <g
     id="g12162"
     transform="translate(6,37)"
     style="font-size:11px;font-family:sans-serif">
    <text
       clip-path="url(#clipPath14)"
       id="text12164"
       xml:space="preserve"
       style="stroke:none"
       y="12"
       x="10">Actor</text>
  </g>
  <g
     id="g12166"
     style="font-size:11px;stroke-linecap:butt;stroke-linejoin:round;font-family:sans-serif"
     transform="translate(-16,22)">
    <line
       clip-path="url(#clipPath15)"
       id="line12168"
       y2="50"
       style="fill:none"
       y1="50"
       x2="222"
       x1="50" />
    <polygon
       clip-path="url(#clipPath15)"
       id="polygon12170"
       points="210,56 222,50 210,44 "
       style="stroke:none" />
    <polygon
       clip-path="url(#clipPath15)"
       id="polygon12172"
       points="210,56 222,50 210,44 "
       style="fill:none" />
  </g>
  <g
     id="g12174"
     style="font-size:11px;stroke-linecap:butt;stroke-linejoin:round;font-family:sans-serif"
     transform="translate(394,52)">
    <line
       clip-path="url(#clipPath16)"
       id="line12176"
       y2="50"
       style="fill:none"
       y1="50"
       x2="212"
       x1="50" />
    <polygon
       clip-path="url(#clipPath16)"
       id="polygon12178"
       points="200,56 212,50 200,44 "
       style="stroke:none" />
    <polygon
       clip-path="url(#clipPath16)"
       id="polygon12180"
       points="200,56 212,50 200,44 "
       style="fill:none" />
  </g>
  <g
     id="g12182"
     style="font-size:11px;stroke-linecap:butt;stroke-linejoin:round;font-family:sans-serif"
     transform="translate(164,32)">
    <line
       clip-path="url(#clipPath17)"
       id="line12184"
       y2="50"
       style="fill:none"
       y1="50"
       x2="272"
       x1="50" />
    <polygon
       clip-path="url(#clipPath17)"
       id="polygon12186"
       points="260,56 272,50 260,44 "
       style="stroke:none" />
    <polygon
       clip-path="url(#clipPath17)"
       id="polygon12188"
       points="260,56 272,50 260,44 "
       style="fill:none" />
  </g>
  <g
     id="g12190"
     transform="translate(270,62)"
     style="font-size:11px;font-family:sans-serif">
    <text
       clip-path="url(#clipPath18)"
       id="text12192"
       xml:space="preserve"
       style="stroke:none"
       y="12"
       x="11">Ampel droppen</text>
  </g>
  <g
     id="g12194"
     transform="translate(467,81)"
     style="font-size:11px;font-family:sans-serif">
    <text
       clip-path="url(#clipPath19)"
       id="text12196"
       xml:space="preserve"
       style="stroke:none"
       y="12"
       x="10">enableTrafficlight()</text>
  </g>
  <g
     id="g12198"
     transform="translate(50,52)"
     style="font-size:11px;font-family:sans-serif">
    <text
       clip-path="url(#clipPath20)"
       id="text12200"
       xml:space="preserve"
       style="stroke:none"
       y="12"
       x="10">Ampel wählen (Drag&amp;Drop)</text>
  </g>
</svg>
