<?xml version="1.0" encoding="UTF-8" standalone="no"?>
<svg
   xmlns:dc="http://purl.org/dc/elements/1.1/"
   xmlns:cc="http://creativecommons.org/ns#"
   xmlns:rdf="http://www.w3.org/1999/02/22-rdf-syntax-ns#"
   xmlns:svg="http://www.w3.org/2000/svg"
   xmlns="http://www.w3.org/2000/svg"
   xmlns:sodipodi="http://sodipodi.sourceforge.net/DTD/sodipodi-0.dtd"
   xmlns:inkscape="http://www.inkscape.org/namespaces/inkscape"
   style="fill-opacity:1; color-rendering:auto; color-interpolation:auto; stroke:black; text-rendering:auto; stroke-linecap:square; stroke-miterlimit:10; stroke-opacity:1; shape-rendering:auto; fill:black; stroke-dasharray:none; font-weight:normal; stroke-width:1; font-family:'Dialog'; font-style:normal; stroke-linejoin:miter; font-size:12; stroke-dashoffset:0; image-rendering:auto;"
   width="794"
   height="426"
   id="svg8849"
   version="1.1"
   inkscape:version="0.48.0 r9654"
   sodipodi:docname="Kachel-platzieren.svg">
  <metadata
     id="metadata9260">
    <rdf:RDF>
      <cc:Work
         rdf:about="">
        <dc:format>image/svg+xml</dc:format>
        <dc:type
           rdf:resource="http://purl.org/dc/dcmitype/StillImage" />
      </cc:Work>
    </rdf:RDF>
  </metadata>
  <sodipodi:namedview
     pagecolor="#ffffff"
     bordercolor="#666666"
     borderopacity="1"
     objecttolerance="10"
     gridtolerance="10"
     guidetolerance="10"
     inkscape:pageopacity="0"
     inkscape:pageshadow="2"
     inkscape:window-width="1680"
     inkscape:window-height="1028"
     id="namedview9258"
     showgrid="false"
     inkscape:zoom="0.61267606"
     inkscape:cx="397"
     inkscape:cy="213"
     inkscape:window-x="-8"
     inkscape:window-y="-8"
     inkscape:window-maximized="1"
     inkscape:current-layer="svg8849" />
  <!--Generated by the Batik Graphics2D SVG Generator-->
  <defs
     id="genericDefs">
    <defs
       id="defs1">
      <clipPath
         id="clipPath1"
         clipPathUnits="userSpaceOnUse">
        <path
           id="path8856"
           d="M-3 -3 L67 -3 L67 427 L-3 427 L-3 -3 Z" />
      </clipPath>
      <clipPath
         id="clipPath2"
         clipPathUnits="userSpaceOnUse">
        <path
           id="path8859"
           d="M-3 -3 L147 -3 L147 427 L-3 427 L-3 -3 Z" />
      </clipPath>
      <clipPath
         id="clipPath3"
         clipPathUnits="userSpaceOnUse">
        <path
           id="path8862"
           d="M-3 -3 L107 -3 L107 427 L-3 427 L-3 -3 Z" />
      </clipPath>
      <clipPath
         id="clipPath4"
         clipPathUnits="userSpaceOnUse">
        <path
           id="path8865"
           d="M-3 -3 L127 -3 L127 427 L-3 427 L-3 -3 Z" />
      </clipPath>
      <clipPath
         id="clipPath5"
         clipPathUnits="userSpaceOnUse">
        <path
           id="path8868"
           d="M-3 -3 L167 -3 L167 427 L-3 427 L-3 -3 Z" />
      </clipPath>
      <clipPath
         id="clipPath6"
         clipPathUnits="userSpaceOnUse">
        <path
           id="path8871"
           d="M-3 -3 L15 -3 L15 307 L-3 307 L-3 -3 Z" />
      </clipPath>
      <clipPath
         id="clipPath7"
         clipPathUnits="userSpaceOnUse">
        <path
           id="path8874"
           d="M-3 -3 L15 -3 L15 257 L-3 257 L-3 -3 Z" />
      </clipPath>
      <clipPath
         id="clipPath8"
         clipPathUnits="userSpaceOnUse">
        <path
           id="path8877"
           d="M-3 -3 L15 -3 L15 337 L-3 337 L-3 -3 Z" />
      </clipPath>
      <clipPath
         id="clipPath9"
         clipPathUnits="userSpaceOnUse">
        <path
           id="path8880"
           d="M-3 -3 L15 -3 L15 177 L-3 177 L-3 -3 Z" />
      </clipPath>
      <clipPath
         id="clipPath10"
         clipPathUnits="userSpaceOnUse">
        <path
           id="path8883"
           d="M-160 -15 L320 -15 L320 30 L-160 30 L-160 -15 Z" />
      </clipPath>
      <clipPath
         id="clipPath11"
         clipPathUnits="userSpaceOnUse">
        <path
           id="path8886"
           d="M-120 -15 L240 -15 L240 30 L-120 30 L-120 -15 Z" />
      </clipPath>
      <clipPath
         id="clipPath12"
         clipPathUnits="userSpaceOnUse">
        <path
           id="path8889"
           d="M-100 -15 L200 -15 L200 30 L-100 30 L-100 -15 Z" />
      </clipPath>
      <clipPath
         id="clipPath13"
         clipPathUnits="userSpaceOnUse">
        <path
           id="path8892"
           d="M-140 -15 L280 -15 L280 30 L-140 30 L-140 -15 Z" />
      </clipPath>
      <clipPath
         id="clipPath14"
         clipPathUnits="userSpaceOnUse">
        <path
           id="path8895"
           d="M-47 -15 L94 -15 L94 30 L-47 30 L-47 -15 Z" />
      </clipPath>
      <clipPath
         id="clipPath15"
         clipPathUnits="userSpaceOnUse">
        <path
           id="path8898"
           d="M0 0 L256 0 L256 104 L0 104 L0 0 Z" />
      </clipPath>
      <clipPath
         id="clipPath16"
         clipPathUnits="userSpaceOnUse">
        <path
           id="path8901"
           d="M0 0 L246 0 L246 104 L0 104 L0 0 Z" />
      </clipPath>
      <clipPath
         id="clipPath17"
         clipPathUnits="userSpaceOnUse">
        <path
           id="path8904"
           d="M0 0 L466 0 L466 104 L0 104 L0 0 Z" />
      </clipPath>
      <clipPath
         id="clipPath18"
         clipPathUnits="userSpaceOnUse">
        <path
           id="path8907"
           d="M0 0 L326 0 L326 104 L0 104 L0 0 Z" />
      </clipPath>
      <clipPath
         id="clipPath19"
         clipPathUnits="userSpaceOnUse">
        <path
           id="path8910"
           d="M0 0 L236 0 L236 104 L0 104 L0 0 Z" />
      </clipPath>
      <clipPath
         id="clipPath20"
         clipPathUnits="userSpaceOnUse">
        <path
           id="path8913"
           d="M-79 -15 L158 -15 L158 30 L-79 30 L-79 -15 Z" />
      </clipPath>
      <clipPath
         id="clipPath21"
         clipPathUnits="userSpaceOnUse">
        <path
           id="path8916"
           d="M-61 -15 L122 -15 L122 30 L-61 30 L-61 -15 Z" />
      </clipPath>
      <clipPath
         id="clipPath22"
         clipPathUnits="userSpaceOnUse">
        <path
           id="path8919"
           d="M-199 -15 L398 -15 L398 30 L-199 30 L-199 -15 Z" />
      </clipPath>
      <clipPath
         id="clipPath23"
         clipPathUnits="userSpaceOnUse">
        <path
           id="path8922"
           d="M-74 -15 L148 -15 L148 30 L-74 30 L-74 -15 Z" />
      </clipPath>
      <clipPath
         id="clipPath24"
         clipPathUnits="userSpaceOnUse">
        <path
           id="path8925"
           d="M-111 -15 L222 -15 L222 30 L-111 30 L-111 -15 Z" />
      </clipPath>
      <clipPath
         id="clipPath25"
         clipPathUnits="userSpaceOnUse">
        <path
           id="path8928"
           d="M-92 -15 L184 -15 L184 30 L-92 30 L-92 -15 Z" />
      </clipPath>
    </defs>
  </defs>
  <g
     id="g8930"
     style="fill:#ffffff;stroke:#ffffff">
    <rect
       id="rect8932"
       height="426"
       style="stroke:none"
       width="794"
       y="0"
       x="0" />
  </g>
  <g
     id="g8934"
     style="font-size:11px;fill:#7acff5;stroke:#7acff5;font-family:sans-serif"
     transform="translate(0,2)">
    <circle
       sodipodi:ry="5"
       sodipodi:rx="5"
       sodipodi:cy="5"
       sodipodi:cx="30"
       d="m 35,5 c 0,2.7614237 -2.238576,5 -5,5 -2.761424,0 -5,-2.2385763 -5,-5 0,-2.7614237 2.238576,-5 5,-5 2.761424,0 5,2.2385763 5,5 z"
       clip-path="url(#clipPath1)"
       id="circle8936"
       cy="5"
       cx="30"
       r="5"
       style="stroke:none" />
    <rect
       clip-path="url(#clipPath1)"
       id="rect8938"
       height="369"
       style="stroke:none"
       width="8"
       y="50"
       x="26" />
  </g>
  <g
     id="g8940"
     style="font-size:11px;stroke-linecap:butt;stroke-linejoin:round;stroke-miterlimit:0;font-family:sans-serif"
     transform="translate(0,2)">
    <circle
       sodipodi:ry="5"
       sodipodi:rx="5"
       sodipodi:cy="5"
       sodipodi:cx="30"
       d="m 35,5 c 0,2.7614237 -2.238576,5 -5,5 -2.761424,0 -5,-2.2385763 -5,-5 0,-2.7614237 2.238576,-5 5,-5 2.761424,0 5,2.2385763 5,5 z"
       clip-path="url(#clipPath1)"
       id="circle8942"
       cy="5"
       cx="30"
       r="5"
       style="fill:none" />
    <rect
       clip-path="url(#clipPath1)"
       id="rect8944"
       height="369"
       style="fill:none"
       width="8"
       y="50"
       x="26" />
    <line
       clip-path="url(#clipPath1)"
       id="line8946"
       y2="25"
       style="fill:none"
       y1="10"
       x2="30"
       x1="30" />
    <line
       clip-path="url(#clipPath1)"
       id="line8948"
       y2="36"
       style="fill:none"
       y1="25"
       x2="21"
       x1="30" />
    <line
       clip-path="url(#clipPath1)"
       id="line8950"
       y2="36"
       style="fill:none"
       y1="25"
       x2="39"
       x1="30" />
    <line
       clip-path="url(#clipPath1)"
       id="line8952"
       y2="16"
       style="fill:none"
       y1="16"
       x2="39"
       x1="21" />
  </g>
  <g
     id="g8954"
     style="font-size:11px;fill:#7acff5;stroke:#7acff5;font-family:sans-serif"
     transform="translate(120,2)">
    <rect
       clip-path="url(#clipPath2)"
       id="rect8956"
       height="35"
       style="stroke:none"
       width="139"
       y="0"
       x="0" />
  </g>
  <g
     id="g8958"
     style="font-size:11px;stroke-linecap:butt;stroke-linejoin:round;stroke-miterlimit:0;font-family:sans-serif"
     transform="translate(120,2)">
    <rect
       clip-path="url(#clipPath2)"
       id="rect8960"
       height="35"
       style="fill:none"
       width="139"
       y="0"
       x="0" />
    <line
       clip-path="url(#clipPath2)"
       id="line8962"
       y2="420"
       style="fill:none;stroke-linejoin:bevel;stroke-dasharray:8, 3"
       y1="35"
       x2="69"
       x1="69" />
  </g>
  <g
     id="g8964"
     style="font-size:11px;fill:#7acff5;stroke:#7acff5;font-family:sans-serif"
     transform="translate(290,2)">
    <rect
       clip-path="url(#clipPath3)"
       id="rect8966"
       height="35"
       style="stroke:none"
       width="99"
       y="0"
       x="0" />
  </g>
  <g
     id="g8968"
     style="font-size:11px;stroke-linecap:butt;stroke-linejoin:round;stroke-miterlimit:0;font-family:sans-serif"
     transform="translate(290,2)">
    <rect
       clip-path="url(#clipPath3)"
       id="rect8970"
       height="35"
       style="fill:none"
       width="99"
       y="0"
       x="0" />
    <line
       clip-path="url(#clipPath3)"
       id="line8972"
       y2="420"
       style="fill:none;stroke-linejoin:bevel;stroke-dasharray:8, 3"
       y1="35"
       x2="49"
       x1="49" />
  </g>
  <g
     id="g8974"
     style="font-size:11px;fill:#7acff5;stroke:#7acff5;font-family:sans-serif"
     transform="translate(420,2)">
    <rect
       clip-path="url(#clipPath4)"
       id="rect8976"
       height="35"
       style="stroke:none"
       width="119"
       y="0"
       x="0" />
  </g>
  <g
     id="g8978"
     style="font-size:11px;stroke-linecap:butt;stroke-linejoin:round;stroke-miterlimit:0;font-family:sans-serif"
     transform="translate(420,2)">
    <rect
       clip-path="url(#clipPath4)"
       id="rect8980"
       height="35"
       style="fill:none"
       width="119"
       y="0"
       x="0" />
    <line
       clip-path="url(#clipPath4)"
       id="line8982"
       y2="420"
       style="fill:none;stroke-linejoin:bevel;stroke-dasharray:8, 3"
       y1="35"
       x2="59"
       x1="59" />
  </g>
  <g
     id="g8984"
     style="font-size:11px;fill:#7acff5;stroke:#7acff5;font-family:sans-serif"
     transform="translate(630,2)">
    <rect
       clip-path="url(#clipPath5)"
       id="rect8986"
       height="35"
       style="stroke:none"
       width="159"
       y="0"
       x="0" />
  </g>
  <g
     id="g8988"
     style="font-size:11px;stroke-linecap:butt;stroke-linejoin:round;stroke-miterlimit:0;font-family:sans-serif"
     transform="translate(630,2)">
    <rect
       clip-path="url(#clipPath5)"
       id="rect8990"
       height="35"
       style="fill:none"
       width="159"
       y="0"
       x="0" />
    <line
       clip-path="url(#clipPath5)"
       id="line8992"
       y2="420"
       style="fill:none;stroke-linejoin:bevel;stroke-dasharray:8, 3"
       y1="35"
       x2="79"
       x1="79" />
  </g>
  <g
     id="g8994"
     style="font-size:11px;fill:#7acff5;stroke:#7acff5;font-family:sans-serif"
     transform="translate(336,72)">
    <rect
       clip-path="url(#clipPath6)"
       id="rect8996"
       height="300"
       style="stroke:none"
       width="8"
       y="0"
       x="0" />
  </g>
  <g
     id="g8998"
     style="font-size:11px;stroke-linecap:butt;stroke-linejoin:round;stroke-miterlimit:0;font-family:sans-serif"
     transform="translate(336,72)">
    <rect
       clip-path="url(#clipPath6)"
       id="rect9000"
       height="300"
       style="fill:none"
       width="8"
       y="0"
       x="0" />
  </g>
  <g
     id="g9002"
     style="font-size:11px;fill:#7acff5;stroke:#7acff5;font-family:sans-serif"
     transform="translate(706,102)">
    <rect
       clip-path="url(#clipPath7)"
       id="rect9004"
       height="250"
       style="stroke:none"
       width="8"
       y="0"
       x="0" />
  </g>
  <g
     id="g9006"
     style="font-size:11px;stroke-linecap:butt;stroke-linejoin:round;stroke-miterlimit:0;font-family:sans-serif"
     transform="translate(706,102)">
    <rect
       clip-path="url(#clipPath7)"
       id="rect9008"
       height="250"
       style="fill:none"
       width="8"
       y="0"
       x="0" />
  </g>
  <g
     id="g9010"
     style="font-size:11px;fill:#7acff5;stroke:#7acff5;font-family:sans-serif"
     transform="translate(186,72)">
    <rect
       clip-path="url(#clipPath8)"
       id="rect9012"
       height="330"
       style="stroke:none"
       width="8"
       y="0"
       x="0" />
  </g>
  <g
     id="g9014"
     style="font-size:11px;stroke-linecap:butt;stroke-linejoin:round;stroke-miterlimit:0;font-family:sans-serif"
     transform="translate(186,72)">
    <rect
       clip-path="url(#clipPath8)"
       id="rect9016"
       height="330"
       style="fill:none"
       width="8"
       y="0"
       x="0" />
  </g>
  <g
     id="g9018"
     style="font-size:11px;fill:#7acff5;stroke:#7acff5;font-family:sans-serif"
     transform="translate(476,152)">
    <rect
       clip-path="url(#clipPath9)"
       id="rect9020"
       height="170"
       style="stroke:none"
       width="8"
       y="0"
       x="0" />
  </g>
  <g
     id="g9022"
     style="font-size:11px;stroke-linecap:butt;stroke-linejoin:round;stroke-miterlimit:0;font-family:sans-serif"
     transform="translate(476,152)">
    <rect
       clip-path="url(#clipPath9)"
       id="rect9024"
       height="170"
       style="fill:none"
       width="8"
       y="0"
       x="0" />
  </g>
  <g
     id="g9026"
     transform="translate(630,2)"
     style="font-size:11px;font-family:sans-serif">
    <text
       clip-path="url(#clipPath10)"
       id="text9028"
       xml:space="preserve"
       style="stroke:none"
       y="12"
       x="14">controller : WorldController</text>
  </g>
  <g
     id="g9030"
     transform="translate(420,2)"
     style="font-size:11px;font-family:sans-serif">
    <text
       clip-path="url(#clipPath11)"
       id="text9032"
       xml:space="preserve"
       style="stroke:none"
       y="12"
       x="11">model : WorldModel</text>
  </g>
  <g
     id="g9034"
     transform="translate(290,2)"
     style="font-size:11px;font-family:sans-serif">
    <text
       clip-path="url(#clipPath12)"
       id="text9036"
       xml:space="preserve"
       style="stroke:none"
       y="12"
       x="8">view : WorldView</text>
  </g>
  <g
     id="g9038"
     transform="translate(120,2)"
     style="font-size:11px;font-family:sans-serif">
    <text
       clip-path="url(#clipPath13)"
       id="text9040"
       xml:space="preserve"
       style="stroke:none"
       y="12"
       x="23">view : ToolbarView</text>
  </g>
  <g
     id="g9042"
     transform="translate(7,37)"
     style="font-size:11px;font-family:sans-serif">
    <text
       clip-path="url(#clipPath14)"
       id="text9044"
       xml:space="preserve"
       style="stroke:none"
       y="12"
       x="9">Actor</text>
  </g>
  <g
     id="g9046"
     style="font-size:11px;stroke-linecap:butt;stroke-linejoin:round;font-family:sans-serif"
     transform="translate(-16,22)">
    <line
       clip-path="url(#clipPath15)"
       id="line9048"
       y2="50"
       style="fill:none"
       y1="50"
       x2="202"
       x1="50" />
    <polygon
       clip-path="url(#clipPath15)"
       id="polygon9050"
       points="190,56 202,50 190,44 "
       style="stroke:none" />
    <polygon
       clip-path="url(#clipPath15)"
       id="polygon9052"
       points="190,56 202,50 190,44 "
       style="fill:none" />
  </g>
  <g
     id="g9054"
     style="font-size:11px;stroke-linecap:butt;stroke-linejoin:round;font-family:sans-serif"
     transform="translate(144,22)">
    <line
       clip-path="url(#clipPath16)"
       id="line9056"
       y2="50"
       style="fill:none"
       y1="50"
       x2="192"
       x1="50" />
    <polygon
       clip-path="url(#clipPath16)"
       id="polygon9058"
       points="180,56 192,50 180,44 "
       style="stroke:none" />
    <polygon
       clip-path="url(#clipPath16)"
       id="polygon9060"
       points="180,56 192,50 180,44 "
       style="fill:none" />
  </g>
  <g
     id="g9062"
     style="font-size:11px;stroke-linecap:butt;stroke-linejoin:round;font-family:sans-serif"
     transform="translate(294,62)">
    <line
       clip-path="url(#clipPath17)"
       id="line9064"
       y2="50"
       style="fill:none"
       y1="50"
       x2="412"
       x1="50" />
    <polygon
       clip-path="url(#clipPath17)"
       id="polygon9066"
       points="400,56 412,50 400,44 "
       style="stroke:none" />
    <polygon
       clip-path="url(#clipPath17)"
       id="polygon9068"
       points="400,56 412,50 400,44 "
       style="fill:none" />
  </g>
  <g
     id="g9070"
     style="font-size:11px;stroke-linecap:butt;stroke-linejoin:round;font-family:sans-serif"
     transform="translate(434,102)">
    <line
       clip-path="url(#clipPath18)"
       id="line9072"
       y2="50"
       style="fill:none"
       y1="50"
       x2="50"
       x1="272" />
    <polygon
       clip-path="url(#clipPath18)"
       id="polygon9074"
       points="62,44 50,50 62,56 "
       style="stroke:none" />
    <polygon
       clip-path="url(#clipPath18)"
       id="polygon9076"
       points="62,44 50,50 62,56 "
       style="fill:none" />
  </g>
  <g
     id="g9078"
     style="font-size:11px;stroke-linecap:butt;stroke-linejoin:round;stroke-miterlimit:0;stroke-dasharray:8, 3;font-family:sans-serif"
     transform="translate(434,262)">
    <line
       clip-path="url(#clipPath18)"
       id="line9080"
       y2="50"
       style="fill:none"
       y1="50"
       x2="272"
       x1="50" />
    <line
       clip-path="url(#clipPath18)"
       id="line9082"
       y2="44"
       style="fill:none;stroke-miterlimit:10;stroke-dasharray:none"
       y1="50"
       x2="260"
       x1="272" />
    <line
       clip-path="url(#clipPath18)"
       id="line9084"
       y2="56"
       style="fill:none;stroke-miterlimit:10;stroke-dasharray:none"
       y1="50"
       x2="260"
       x1="272" />
  </g>
  <g
     id="g9086"
     style="font-size:11px;stroke-linecap:butt;stroke-linejoin:round;font-family:sans-serif"
     transform="translate(294,152)">
    <line
       clip-path="url(#clipPath19)"
       id="line9088"
       y2="50"
       style="fill:none"
       y1="50"
       x2="50"
       x1="182" />
    <polygon
       clip-path="url(#clipPath19)"
       id="polygon9090"
       points="62,44 50,50 62,56 "
       style="stroke:none" />
    <polygon
       clip-path="url(#clipPath19)"
       id="polygon9092"
       points="62,44 50,50 62,56 "
       style="fill:none" />
  </g>
  <g
     id="g9094"
     style="font-size:11px;stroke-linecap:butt;stroke-linejoin:round;stroke-miterlimit:0;stroke-dasharray:8, 3;font-family:sans-serif"
     transform="translate(294,182)">
    <line
       clip-path="url(#clipPath19)"
       id="line9096"
       y2="50"
       style="fill:none"
       y1="50"
       x2="182"
       x1="50" />
    <line
       clip-path="url(#clipPath19)"
       id="line9098"
       y2="44"
       style="fill:none;stroke-miterlimit:10;stroke-dasharray:none"
       y1="50"
       x2="170"
       x1="182" />
    <line
       clip-path="url(#clipPath19)"
       id="line9100"
       y2="56"
       style="fill:none;stroke-miterlimit:10;stroke-dasharray:none"
       y1="50"
       x2="170"
       x1="182" />
  </g>
  <g
     id="g9102"
     style="font-size:11px;stroke-linecap:butt;stroke-linejoin:round;font-family:sans-serif"
     transform="translate(294,222)">
    <line
       clip-path="url(#clipPath19)"
       id="line9104"
       y2="50"
       style="fill:none"
       y1="50"
       x2="182"
       x1="50" />
    <polygon
       clip-path="url(#clipPath19)"
       id="polygon9106"
       points="170,56 182,50 170,44 "
       style="stroke:none" />
    <polygon
       clip-path="url(#clipPath19)"
       id="polygon9108"
       points="170,56 182,50 170,44 "
       style="fill:none" />
  </g>
  <g
     id="g9110"
     style="font-size:11px;stroke-linecap:butt;stroke-linejoin:round;stroke-miterlimit:0;stroke-dasharray:8, 3;font-family:sans-serif"
     transform="translate(294,252)">
    <line
       clip-path="url(#clipPath19)"
       id="line9112"
       y2="50"
       style="fill:none"
       y1="50"
       x2="50"
       x1="182" />
    <line
       clip-path="url(#clipPath19)"
       id="line9114"
       y2="56"
       style="fill:none;stroke-miterlimit:10;stroke-dasharray:none"
       y1="50"
       x2="62"
       x1="50" />
    <line
       clip-path="url(#clipPath19)"
       id="line9116"
       y2="44"
       style="fill:none;stroke-miterlimit:10;stroke-dasharray:none"
       y1="50"
       x2="62"
       x1="50" />
  </g>
  <g
     id="g9118"
     style="font-size:11px;stroke-linecap:butt;stroke-linejoin:round;stroke-miterlimit:0;stroke-dasharray:8, 3;font-family:sans-serif"
     transform="translate(-16,342)">
    <line
       clip-path="url(#clipPath15)"
       id="line9120"
       y2="50"
       style="fill:none"
       y1="50"
       x2="50"
       x1="202" />
    <line
       clip-path="url(#clipPath15)"
       id="line9122"
       y2="56"
       style="fill:none;stroke-miterlimit:10;stroke-dasharray:none"
       y1="50"
       x2="62"
       x1="50" />
    <line
       clip-path="url(#clipPath15)"
       id="line9124"
       y2="44"
       style="fill:none;stroke-miterlimit:10;stroke-dasharray:none"
       y1="50"
       x2="62"
       x1="50" />
  </g>
  <g
     id="g9126"
     style="font-size:11px;stroke-linecap:butt;stroke-linejoin:round;stroke-miterlimit:0;stroke-dasharray:8, 3;font-family:sans-serif"
     transform="translate(144,312)">
    <line
       clip-path="url(#clipPath16)"
       id="line9128"
       y2="50"
       style="fill:none"
       y1="50"
       x2="50"
       x1="192" />
    <line
       clip-path="url(#clipPath16)"
       id="line9130"
       y2="56"
       style="fill:none;stroke-miterlimit:10;stroke-dasharray:none"
       y1="50"
       x2="62"
       x1="50" />
    <line
       clip-path="url(#clipPath16)"
       id="line9132"
       y2="44"
       style="fill:none;stroke-miterlimit:10;stroke-dasharray:none"
       y1="50"
       x2="62"
       x1="50" />
  </g>
  <g
     id="g9134"
     style="font-size:11px;stroke-linecap:butt;stroke-linejoin:round;stroke-miterlimit:0;stroke-dasharray:8, 3;font-family:sans-serif"
     transform="translate(294,292)">
    <line
       clip-path="url(#clipPath17)"
       id="line9136"
       y2="50"
       style="fill:none"
       y1="50"
       x2="50"
       x1="412" />
    <line
       clip-path="url(#clipPath17)"
       id="line9138"
       y2="56"
       style="fill:none;stroke-miterlimit:10;stroke-dasharray:none"
       y1="50"
       x2="62"
       x1="50" />
    <line
       clip-path="url(#clipPath17)"
       id="line9140"
       y2="44"
       style="fill:none;stroke-miterlimit:10;stroke-dasharray:none"
       y1="50"
       x2="62"
       x1="50" />
  </g>
  <g
     id="g9142"
     transform="translate(370,259)"
     style="font-size:11px;font-family:sans-serif">
    <text
       clip-path="url(#clipPath20)"
       id="text9144"
       xml:space="preserve"
       style="stroke:none"
       y="12"
       x="11">Daten laden</text>
  </g>
  <g
     id="g9146"
     transform="translate(374,184)"
     style="font-size:11px;font-family:sans-serif">
    <text
       clip-path="url(#clipPath21)"
       id="text9148"
       xml:space="preserve"
       style="stroke:none"
       y="12"
       x="10">update()</text>
  </g>
  <g
     id="g9150"
     transform="translate(496,139)"
     style="font-size:11px;font-family:sans-serif">
    <text
       clip-path="url(#clipPath22)"
       id="text9152"
       xml:space="preserve"
       style="stroke:none"
       y="12"
       x="12">Kachel positionieren addPlacedTile()</text>
  </g>
  <g
     id="g9154"
     transform="translate(485,92)"
     style="font-size:11px;font-family:sans-serif">
    <text
       clip-path="url(#clipPath23)"
       id="text9156"
       xml:space="preserve"
       style="stroke:none"
       y="12"
       x="10">addTileAt()</text>
  </g>
  <g
     id="g9158"
     transform="translate(210,52)"
     style="font-size:11px;font-family:sans-serif">
    <text
       clip-path="url(#clipPath24)"
       id="text9160"
       xml:space="preserve"
       style="stroke:none"
       y="12"
       x="10">auf Welt platzieren</text>
  </g>
  <g
     id="g9162"
     transform="translate(40,52)"
     style="font-size:11px;font-family:sans-serif">
    <text
       clip-path="url(#clipPath25)"
       id="text9164"
       xml:space="preserve"
       style="stroke:none"
       y="12"
       x="10">Kachel wählen</text>
  </g>
</svg>
