<?xml version="1.0" encoding="UTF-8" standalone="no"?>
<!-- Created with Inkscape (http://www.inkscape.org/) -->

<svg
   xmlns:dc="http://purl.org/dc/elements/1.1/"
   xmlns:cc="http://creativecommons.org/ns#"
   xmlns:rdf="http://www.w3.org/1999/02/22-rdf-syntax-ns#"
   xmlns:svg="http://www.w3.org/2000/svg"
   xmlns="http://www.w3.org/2000/svg"
   xmlns:sodipodi="http://sodipodi.sourceforge.net/DTD/sodipodi-0.dtd"
   xmlns:inkscape="http://www.inkscape.org/namespaces/inkscape"
   width="100"
   height="100"
   id="svg3030"
   version="1.1"
   inkscape:version="0.48.0 r9654"
   sodipodi:docname="Neues Dokument 1">
  <defs
     id="defs3032" />
  <sodipodi:namedview
     id="base"
     pagecolor="#ffffff"
     bordercolor="#666666"
     borderopacity="1.0"
     inkscape:pageopacity="0.0"
     inkscape:pageshadow="2"
     inkscape:zoom="2.8"
     inkscape:cx="49.519595"
     inkscape:cy="-0.29819889"
     inkscape:document-units="px"
     inkscape:current-layer="layer1"
     showgrid="false"
     inkscape:window-width="1920"
     inkscape:window-height="1178"
     inkscape:window-x="-8"
     inkscape:window-y="-8"
     inkscape:window-maximized="1" />
  <metadata
     id="metadata3035">
    <rdf:RDF>
      <cc:Work
         rdf:about="">
        <dc:format>image/svg+xml</dc:format>
        <dc:type
           rdf:resource="http://purl.org/dc/dcmitype/StillImage" />
        <dc:title></dc:title>
      </cc:Work>
    </rdf:RDF>
  </metadata>
  <g
     inkscape:label="Ebene 1"
     inkscape:groupmode="layer"
     id="layer1"
     transform="translate(0,-952.36217)">
    <path
       style="fill:#0000ff"
       d="m 41.406233,992.78854 c 0.110607,-0.11061 0.418524,-0.0825 0.46002,0.042 0.02066,0.062 0.358775,0.13547 0.753133,0.16369 0.662841,0.0474 0.755647,0.0283 1.258088,-0.25916 0.666472,-0.38132 0.855394,-0.55088 1.23013,-1.10416 0.161466,-0.23839 0.379936,-0.47965 0.485484,-0.53614 0.105549,-0.0565 0.164936,-0.12969 0.131959,-0.16266 -0.03297,-0.033 -0.201111,0.0725 -0.37364,0.23444 -0.254685,0.23899 -0.292369,0.25312 -0.200296,0.0751 0.172679,-0.33392 0.719271,-0.69443 0.815869,-0.53811 0.103356,0.16722 0.0095,0.50597 -0.140246,0.50597 -0.115324,0 -0.863529,0.70805 -0.863529,0.81718 0,0.0299 0.0792,0.0561 0.175998,0.0581 0.222241,0.005 0.628567,-0.35795 0.628567,-0.56096 0,-0.11885 0.02705,-0.12639 0.11999,-0.0334 0.09295,0.0929 0.07049,0.18695 -0.09963,0.41704 -0.120785,0.16338 -0.178643,0.32237 -0.128579,0.35331 0.05007,0.0309 0.113956,-6e-4 0.141975,-0.0701 0.02801,-0.0695 0.0545,-0.007 0.05887,0.13791 0.0092,0.30384 0.177367,0.47205 0.57979,0.57967 0.298131,0.0797 0.458079,0.41321 0.198184,0.41321 -0.16746,0 -0.261694,0.18577 -0.191325,0.37714 0.0735,0.19986 0.316566,0.14671 0.56753,-0.12408 0.127322,-0.13738 0.268182,-0.21658 0.313026,-0.176 0.04484,0.0406 0.04763,0.015 0.0061,-0.0568 -0.05866,-0.10167 -0.107299,-0.10409 -0.219566,-0.0109 -0.115908,0.0962 -0.132663,0.0896 -0.08536,-0.0337 0.03236,-0.0843 -0.01621,-0.32834 -0.107953,-0.54222 -0.09255,-0.21578 -0.204339,-0.87406 -0.251135,-1.47883 -0.08027,-1.03722 -0.05471,-1.41988 0.08911,-1.33423 0.03569,0.0213 0.208241,-0.24717 0.383445,-0.5965 0.354502,-0.70679 0.463118,-0.72332 -1.001703,0.15245 -0.20978,0.12542 -0.404093,0.20538 -0.43179,0.17768 -0.108807,-0.1088 0.890633,-0.86326 1.510329,-1.14012 0.665557,-0.29735 0.733764,-0.37588 0.560028,-0.64472 -0.06499,-0.10057 -0.09801,-0.10895 -0.09903,-0.0251 -0.001,0.0691 -0.06942,0.12572 -0.152395,0.12572 -0.08297,0 -0.150856,-0.0642 -0.150856,-0.14263 0,-0.0784 -0.02944,-0.21935 -0.06542,-0.31311 -0.05764,-0.15021 -0.01428,-0.16184 0.36473,-0.0978 0.30504,0.0515 0.410086,0.0402 0.361199,-0.0389 -0.04168,-0.0674 0.01021,-0.11156 0.131124,-0.11156 0.127534,0 0.215895,0.0821 0.243673,0.22629 0.02397,0.12445 0.04974,-0.16972 0.05728,-0.65371 0.011,-0.70666 -0.01494,-0.87999 -0.131647,-0.87999 -0.102049,0 -0.154477,0.14231 -0.175999,0.47771 -0.0174,0.27112 -0.07414,0.45843 -0.131225,0.43312 -0.05531,-0.0245 -0.129152,0.0886 -0.164101,0.25143 -0.05371,0.25032 -0.06499,0.22615 -0.07302,-0.15656 -0.0052,-0.24891 0.0384,-0.63359 0.09695,-0.85485 0.05854,-0.22125 0.130491,-0.52674 0.159867,-0.67885 0.02939,-0.15211 0.09354,-0.27657 0.142579,-0.27657 0.04904,0 0.08985,-0.0792 0.0907,-0.176 0.0033,-0.38023 0.196515,0.12472 0.201996,0.528 0.0054,0.40228 0.0054,0.40228 0.156407,0.0503 0.083,-0.1936 0.297629,-0.48776 0.476926,-0.65371 0.297358,-0.27519 0.349413,-0.29048 0.59218,-0.17398 0.146391,0.0702 0.386061,0.27021 0.532592,0.44436 0.266432,0.31664 0.266432,0.31664 0.199019,-0.42944 -0.140949,-1.55985 -0.390194,-2.04166 -1.11216,-2.14993 -0.372312,-0.0558 -0.503356,-0.0335 -0.669408,0.11408 -0.288517,0.25644 -0.676317,1.12049 -0.691715,1.5412 -0.007,0.1936 -0.05103,0.48777 -0.09764,0.65371 -0.0538,0.19152 -0.06555,-0.024 -0.03218,-0.59011 0.05648,-0.95786 0.303331,-1.53737 0.758714,-1.78108 0.293506,-0.15708 1.166278,-0.0469 1.415532,0.17864 0.464234,0.42012 0.665345,1.55128 0.634068,3.56635 -0.0182,1.17264 -0.0182,1.17264 0.215955,1.08362 0.229402,-0.0872 0.25019,-0.0696 0.274387,0.23285 0.0055,0.0691 0.05072,0.15516 0.1004,0.19115 0.05081,0.0368 0.01779,0.24677 -0.07543,0.47975 -0.223971,0.55976 -0.212184,0.62821 0.08487,0.49286 0.180685,-0.0823 0.222332,-0.14831 0.149207,-0.23642 -0.07689,-0.0926 -0.0052,-0.1197 0.295989,-0.1118 0.21858,0.006 0.379332,0.0285 0.357217,0.0506 -0.02211,0.0221 0.235184,0.20672 0.571774,0.41023 0.742392,0.4489 1.437859,1.12304 1.716963,1.66432 0.144691,0.28062 0.209579,0.60576 0.215754,1.08114 0.0088,0.67982 0.0088,0.67982 0.488481,0.67982 0.263807,0 0.479652,0.0377 0.479652,0.0839 0,0.0461 0.246046,0.25331 0.546762,0.46043 0.53747,0.37016 0.560138,0.37585 1.332561,0.33433 0.432192,-0.0232 0.887626,-0.0773 1.012082,-0.12016 0.187032,-0.0644 0.226284,-0.0417 0.226284,0.13091 0,0.29516 -0.595478,0.45168 -1.519632,0.39946 -0.620822,-0.0351 -0.823382,-0.0939 -1.230079,-0.35703 -0.460212,-0.29777 -0.770261,-0.33772 -0.770261,-0.0992 0,0.0589 -0.0698,0.18416 -0.155099,0.27842 -0.141885,0.15678 -0.133317,0.17555 0.10057,0.22026 0.148452,0.0284 0.255671,0.002 0.255671,-0.0617 0,-0.0608 0.117557,0.0546 0.261232,0.25658 0.221305,0.31103 0.386543,0.40593 1.081134,0.62093 0.450949,0.13958 0.944358,0.28422 1.096471,0.32141 0.152113,0.0372 0.276569,0.10798 0.276569,0.15729 0,0.0493 0.0792,0.0933 0.175999,0.0976 0.105137,0.005 0.125381,0.0284 0.05029,0.0587 -0.178523,0.072 -0.155975,0.2351 0.03252,0.2351 0.09724,0 0.14448,0.0678 0.122555,0.176 -0.04991,0.2462 -0.662358,0.18639 -1.856996,-0.18134 -0.76491,-0.23546 -0.988308,-0.26916 -1.186271,-0.17896 -0.388534,0.17703 -2.640533,-0.17739 -2.590408,-0.40768 0.0152,-0.0698 -0.02183,-0.0964 -0.08229,-0.059 -0.06045,0.0374 -0.08563,0.13124 -0.05594,0.20862 0.03443,0.0897 -0.01434,0.14068 -0.134583,0.14068 -0.141604,0 -0.174913,0.0522 -0.133739,0.20964 0.03584,0.13708 0.07995,0.16897 0.127443,0.0921 0.05067,-0.082 0.09204,-0.0669 0.136897,0.05 0.08582,0.22362 0.08124,0.35786 -0.01114,0.32706 -0.157413,-0.0525 -0.129515,0.0931 0.123893,0.64663 0.214648,0.46884 0.316616,0.5833 0.569028,0.63874 0.215967,0.0474 0.275897,0.0992 0.201272,0.17379 -0.07461,0.0746 -0.159907,0.0641 -0.286505,-0.0353 -0.16202,-0.12723 -0.167109,-0.12473 -0.05036,0.0247 0.07146,0.0914 0.09408,0.1857 0.05029,0.20952 -0.04379,0.0238 -0.03437,0.0356 0.02095,0.0261 0.391975,-0.0671 0.473105,1.35532 0.149468,2.6207 -0.111382,0.4355 -0.249586,0.8388 -0.307102,0.8961 -0.05752,0.057 -0.249084,0.1042 -0.425696,0.1042 -0.265214,0 -0.323214,0.041 -0.33319,0.233 -0.0066,0.1281 -0.05537,0.2763 -0.108295,0.3292 -0.120021,0.12 -0.04427,0.6949 0.09157,0.6949 0.05495,0 0.07387,-0.068 0.04203,-0.1508 -0.03184,-0.083 -0.02315,-0.1509 0.01932,-0.1509 0.04246,0 0.134564,0.1586 0.204671,0.3525 0.110055,0.3043 0.104926,0.375 -0.03751,0.5175 -0.12337,0.1233 -0.134302,0.1839 -0.04336,0.2401 0.06984,0.043 0.0969,0.1761 0.06357,0.3122 -0.03193,0.1304 0.02211,0.5275 0.120061,0.8824 0.160119,0.5801 0.205064,0.6464 0.444935,0.6569 0.391501,0.017 0.556207,0.2151 0.350308,0.421 -0.126438,0.1264 -0.26608,0.1474 -0.624252,0.094 -0.420526,-0.063 -0.461378,-0.094 -0.461378,-0.348 0,-0.1533 -0.0326,-0.3114 -0.07244,-0.3512 -0.03985,-0.04 -0.059,-0.2284 -0.04258,-0.4191 0.03553,-0.4124 -0.05189,-0.4497 -0.191738,-0.082 -0.106906,0.2812 -0.03737,0.6785 0.103508,0.5915 0.04619,-0.029 0.08943,0.2763 0.09609,0.6774 0.0066,0.4011 0.05438,0.8877 0.106041,1.0813 0.07089,0.2656 0.08007,0.1669 0.03738,-0.4023 -0.04255,-0.5675 -0.02787,-0.7269 0.05929,-0.6436 0.06371,0.061 0.123209,0.2085 0.13221,0.3281 0.01738,0.2306 0.182083,0.2425 0.256717,0.019 0.02975,-0.089 -0.0015,-0.1072 -0.09428,-0.054 -0.111231,0.063 -0.114158,0.053 -0.01472,-0.055 0.06823,-0.074 0.154778,-0.103 0.192341,-0.066 0.101537,0.1016 -0.14991,0.5936 -0.266522,0.5215 -0.05507,-0.034 -0.100138,-0.013 -0.100138,0.047 0,0.065 0.0997,0.083 0.251427,0.045 0.233394,-0.059 0.251426,-0.037 0.251426,0.2998 0,0.4058 -0.05216,0.4379 -0.318939,0.1965 -0.145768,-0.1319 -0.183592,-0.1371 -0.182375,-0.025 0.0032,0.2946 0.166776,0.3677 0.853311,0.3815 0.895754,0.018 1.055993,0.071 1.055993,0.352 0,0.2016 -0.05832,0.2308 -0.527996,0.2642 -0.290398,0.021 -0.694672,0.033 -0.898388,0.028 -0.237156,-0.01 -0.390496,0.043 -0.426279,0.1365 -0.03118,0.081 -0.01193,0.1185 0.04354,0.084 0.05468,-0.034 0.106313,-0 0.114741,0.07 0.02939,0.2526 0.04739,0.3343 0.123109,0.559 0.06296,0.1869 0.110054,0.2081 0.270605,0.1222 0.13395,-0.072 0.194393,-0.072 0.194393,10e-5 0,0.057 -0.06788,0.1041 -0.150856,0.1041 -0.18864,0 -0.187997,0.054 0.0079,0.6628 0.09165,0.285 0.182455,1.0389 0.214739,1.783 0.05594,1.2892 0.05594,1.2892 -0.3348,1.6913 -0.460583,0.4739 -1.437758,1.0926 -1.725691,1.0926 -0.218983,0 -0.350268,0.218 -0.265044,0.4401 0.06217,0.162 -0.131708,4.9687 -0.222201,5.5091 -0.0442,0.2639 -0.02285,0.3803 0.07576,0.4129 0.07552,0.025 0.05811,0.034 -0.03869,0.019 -0.12347,-0.019 -0.175998,0.041 -0.175998,0.2007 0,0.3533 -0.408387,0.8746 -0.945223,1.2065 -0.678178,0.4193 -1.469217,0.4234 -2.064725,0.011 -0.445035,-0.3084 -0.81412,-0.8216 -0.807703,-1.1231 0.003,-0.1407 0.04481,-0.1119 0.163075,0.1125 0.345822,0.6559 1.046759,1.1565 1.619408,1.1565 0.413336,0 1.297663,-0.4716 1.575097,-0.8401 0.315289,-0.4187 0.441525,-1.1278 0.50392,-2.8307 0.05159,-1.408 0.05159,-1.408 -0.121842,-0.9047 -0.465964,1.3523 -1.160766,1.8441 -1.952971,1.3824 -0.335161,-0.1953 -0.791521,-1.0163 -0.964331,-1.7348 -0.136847,-0.569 -0.279707,-1.8823 -0.239891,-2.2052 0.0512,-0.4151 0.303723,-0.8114 0.475146,-0.7456 0.136464,0.052 0.146551,-0.081 0.08469,-1.1152 -0.0684,-1.144 -0.06461,-1.1761 0.144872,-1.2309 0.119176,-0.031 0.188148,-0.1072 0.154658,-0.1705 -0.03324,-0.063 0.09484,0.044 0.284614,0.2377 0.189777,0.1936 0.333543,0.3769 0.319493,0.4073 -0.01405,0.03 0.06678,0.113 0.179609,0.1834 0.113253,0.071 0.175265,0.08 0.138416,0.02 -0.03671,-0.059 -0.0426,-0.1079 -0.01311,-0.1079 0.02951,0 0.126428,0.1407 0.215382,0.3127 0.103759,0.2007 0.117145,0.2853 0.03733,0.2359 -0.08004,-0.05 -0.09883,-0.036 -0.05266,0.039 0.124306,0.2012 0.267659,0.1272 0.380449,-0.1964 0.06941,-0.1991 0.222593,-0.3605 0.422185,-0.4447 0.172288,-0.073 0.415076,-0.228 0.539532,-0.3451 0.234571,-0.2207 0.304387,-0.3658 0.12168,-0.2529 -0.06782,0.042 -0.08167,-0.027 -0.03938,-0.1952 0.04806,-0.1915 0.02618,-0.2598 -0.08317,-0.2598 -0.153602,0 -0.582817,-0.5792 -0.908425,-1.2259 -0.102753,-0.2041 -0.260025,-0.4304 -0.349493,-0.5029 -0.11999,-0.097 -0.14285,-0.099 -0.08713,-0.01 0.04154,0.069 0.0339,0.1257 -0.01697,0.1257 -0.05088,0 -0.231464,0.2607 -0.401317,0.5794 -0.307002,0.576 -0.787931,1.1258 -0.900681,1.0297 -0.06203,-0.053 -0.07874,0.026 -0.186035,0.8821 -0.08978,0.716 -0.241621,0.7696 -0.241621,0.085 0,-0.3088 0.05116,-0.5847 0.115807,-0.6247 0.08053,-0.05 0.06065,-0.1119 -0.06521,-0.2039 -0.15689,-0.1147 -0.162502,-0.1562 -0.04211,-0.3115 0.132703,-0.1712 0.129646,-0.1713 -0.06843,-0 -0.114027,0.097 -0.249013,0.1753 -0.299972,0.1744 -0.05096,-10e-4 -0.04333,-0.035 0.01696,-0.075 0.06028,-0.041 0.241309,-0.2559 0.402283,-0.4784 0.160973,-0.2225 0.374937,-0.4941 0.475487,-0.6035 0.100551,-0.1093 0.359792,-0.4817 0.576089,-0.8274 0.3226,-0.5156 0.443366,-0.6304 0.672033,-0.6386 0.278762,-0.01 0.278762,-0.01 0.02734,-0.096 -0.251426,-0.086 -0.251426,-0.086 0,-0.065 0.138285,0.011 0.251427,0.075 0.251427,0.141 0,0.066 0.06321,0.1795 0.140467,0.2514 0.116642,0.1086 0.126166,0.1051 0.05613,-0.02 -0.07269,-0.13 -0.06085,-0.1318 0.08582,-0.013 0.19025,0.1544 0.235325,0.3667 0.05405,0.2547 -0.07251,-0.045 -0.08878,-0.028 -0.04334,0.046 0.04003,0.065 0.112629,0.093 0.161345,0.063 0.105881,-0.065 0.331501,0.3211 0.257401,0.441 -0.02844,0.046 0.01807,0.1695 0.103376,0.2745 0.0853,0.1049 0.121852,0.1229 0.08122,0.04 -0.04269,-0.087 -0.03577,-0.1161 0.0164,-0.068 0.04965,0.045 0.09527,0.1359 0.101375,0.2012 0.0061,0.065 0.0187,0.2091 0.02797,0.3197 0.01366,0.1629 0.03442,0.1734 0.10928,0.055 0.07394,-0.1169 0.172509,-0.057 0.492867,0.3017 0.457757,0.5119 0.506936,0.4946 0.812429,-0.2851 0.270002,-0.6891 0.262641,-0.8866 -0.04824,-1.2942 -0.441898,-0.5794 -0.568818,-0.9918 -0.44581,-1.4486 0.05938,-0.2205 0.08064,-0.4451 0.04724,-0.4992 -0.0334,-0.054 -0.01163,-0.098 0.04836,-0.098 0.06361,0 0.03464,-0.1313 -0.06948,-0.3149 -0.469413,-0.8276 -0.74378,-1.1981 -0.842138,-1.1373 -0.04864,0.03 -0.06327,-0.011 -0.03253,-0.091 0.03126,-0.082 -0.03545,-0.2096 -0.151359,-0.2908 -0.113997,-0.08 -0.173605,-0.1823 -0.132472,-0.2277 0.04113,-0.045 0.01748,-0.049 -0.05257,-0.01 -0.07005,0.04 -0.103246,0.1124 -0.07379,0.1601 0.02947,0.048 -0.0037,0.1196 -0.07379,0.16 -0.07004,0.04 -0.0921,0.035 -0.04903,-0.013 0.08147,-0.089 -0.714101,-0.3363 -1.109173,-0.3441 -0.147386,-0 -0.225741,-0.066 -0.224745,-0.1804 0.0012,-0.1348 0.02146,-0.1446 0.08658,-0.042 0.06782,0.107 0.09804,0.1002 0.149317,-0.033 0.03535,-0.092 0.06358,-0.243 0.06274,-0.3353 -0.0013,-0.1451 -0.01473,-0.1474 -0.09903,-0.017 -0.07935,0.1228 -0.09777,0.1101 -0.09903,-0.068 -0.001,-0.1205 -0.08074,-0.2982 -0.177537,-0.3949 -0.186096,-0.1859 -0.206471,-0.7099 -0.156025,-4.0122 0.01098,-0.71908 0.01098,-1.48845 0,-1.7097 -0.01486,-0.29942 0.01861,-0.40228 0.130882,-0.40228 0.08297,0 0.252684,-0.1491 0.37714,-0.33133 0.244809,-0.35843 0.299751,-0.53665 0.105599,-0.3425 -0.192834,0.19283 -0.249908,0.14217 -0.202649,-0.17987 0.03119,-0.21249 -0.0034,-0.31877 -0.11799,-0.36275 -0.19915,-0.0764 -0.216247,-0.44297 -0.02066,-0.44297 0.08757,0 0.123098,-0.0701 0.09329,-0.18413 -0.07021,-0.26846 0.117839,-0.87652 0.261082,-0.84423 0.06741,0.0152 0.0939,-0.0187 0.05886,-0.0754 -0.03503,-0.0567 -0.0082,-0.10307 0.05958,-0.10307 0.06779,0 0.09418,-0.0291 0.05864,-0.0646 -0.03553,-0.0355 -0.134684,-0.006 -0.22033,0.0646 -0.175546,0.1457 -0.167148,0.15156 -0.332064,-0.23195 -0.06675,-0.15523 -0.159575,-0.25862 -0.20629,-0.22975 -0.04671,0.0289 -0.08888,-0.0864 -0.09371,-0.25608 -0.0048,-0.16972 -0.02575,-0.32555 -0.04649,-0.3463 -0.07507,-0.0751 -1.710173,0.15534 -1.834468,0.25849 -0.09466,0.0786 -0.141222,0.0534 -0.180676,-0.0974 -0.02923,-0.1118 -0.101234,-0.20326 -0.159987,-0.20326 -0.05875,0 -0.08078,0.0679 -0.04894,0.15085 0.03619,0.0943 -0.001,0.15086 -0.09873,0.15086 -0.08614,0 -0.197249,0.0726 -0.246911,0.16134 -0.08276,0.14788 -0.116722,0.14767 -0.407281,-0.003 -0.328886,-0.17007 -0.448495,-0.60008 -0.191275,-0.68764 0.06914,-0.0235 -0.06663,-0.14136 -0.301712,-0.26185 -0.235084,-0.12048 -0.427425,-0.28907 -0.427425,-0.37465 0,-0.17863 -0.221105,-0.13242 -0.825695,0.17258 -0.664199,0.33507 -2.595436,0.17464 -2.67181,-0.22194 -0.01618,-0.084 0.0023,-0.1845 0.0411,-0.22329 z m 7.018261,0.75036 c 0.459104,-0.0286 0.561666,-0.003 0.650661,0.16343 0.159485,0.298 0.495914,0.35216 0.533869,0.086 0.02329,-0.16336 0.115767,-0.22538 0.382712,-0.25666 0.351997,-0.0412 0.351997,-0.0412 0.05028,-0.10101 -0.25026,-0.0496 -0.307012,-0.11446 -0.332798,-0.38052 -0.02589,-0.267 0.01747,-0.34587 0.258748,-0.47064 0.159415,-0.0824 0.349865,-0.22221 0.423231,-0.3106 0.09943,-0.1198 0.246067,-0.14747 0.575989,-0.10867 0.243421,0.0286 0.419319,0.0144 0.390867,-0.0316 -0.02845,-0.046 -0.198214,-0.0879 -0.37726,-0.093 -0.179036,-0.005 -0.497885,-0.087 -0.70854,-0.18197 -0.315772,-0.14239 -0.429658,-0.15145 -0.648771,-0.0516 -0.200579,0.0914 -0.237347,0.14952 -0.149901,0.23696 0.172277,0.17228 0.140799,0.27678 -0.08335,0.27678 -0.203052,0 -0.271953,0.15925 -0.326342,0.75428 -0.02574,0.28156 -0.05781,0.30361 -0.480144,0.33008 -0.431136,0.027 -0.703833,0.083 -0.704125,0.14448 -8e-5,0.0156 0.245111,0.013 0.544872,-0.006 z m -0.384472,23.8512 c 0.217293,0.6377 0.368762,0.7073 0.339164,0.1559 -0.01297,-0.2418 -0.013,-0.5528 -6e-5,-0.691 0.02353,-0.2515 0.02353,-0.2515 0.104051,0 0.04429,0.1382 0.08503,0.5542 0.09054,0.9243 0.0055,0.3701 0.05591,0.7013 0.111976,0.7359 0.0675,0.042 0.09299,-0.4116 0.07543,-1.3414 -0.01458,-0.7724 -0.0468,-1.385 -0.07158,-1.3613 -0.02478,0.024 -0.10238,-0.06 -0.172438,-0.1864 -0.124828,-0.2248 -0.127443,-0.2232 -0.130933,0.083 -0.0024,0.2135 -0.08334,0.3726 -0.254997,0.5015 -0.295959,0.2223 -0.318376,0.5122 -0.09116,1.1791 z m 0.735181,-2.3556 c 0.34886,0.9559 0.459276,1.1236 0.695889,1.0571 0.09276,-0.026 0.06433,0.01 -0.06318,0.074 -0.231825,0.1215 -0.231825,0.1215 0.05029,0.2533 0.28211,0.1317 0.28211,0.1317 -0.02664,0.079 -0.279738,-0.048 -0.317894,-0.022 -0.406105,0.2778 -0.08236,0.2799 -0.103406,0.9998 -0.05199,1.7784 0.03422,0.5183 0.759459,0.2482 1.157598,-0.4312 0.220914,-0.377 0.262962,-0.5705 0.262962,-1.2102 0,-0.6099 -0.03004,-0.7615 -0.150856,-0.7615 -0.195479,0 -0.191818,-0.029 0.06708,-0.532 0.11987,-0.2329 0.38235,-0.8986 0.58329,-1.4794 0.412128,-1.1912 0.578582,-1.5379 0.701842,-1.4617 0.09858,0.061 0.206632,-0.1783 0.206632,-0.4574 0,-0.1061 0.04526,-0.1929 0.100571,-0.1929 0.160521,0 0.118452,0.3144 -0.146119,1.0923 -0.2467,0.7253 -0.2467,0.7253 0.245996,0.4572 0.270977,-0.1475 0.653528,-0.4155 0.850113,-0.5956 0.344434,-0.3154 0.357237,-0.3525 0.352249,-1.0178 -0.0052,-0.6904 -0.0052,-0.6904 -0.161617,-0.3133 -0.08604,0.2075 -0.20091,0.3772 -0.255269,0.3772 -0.156367,0 -0.475739,-0.4325 -0.482779,-0.6537 -0.0059,-0.1851 -0.0146,-0.1871 -0.108918,-0.025 -0.05638,0.097 -0.233555,0.2438 -0.393714,0.3266 -0.273572,0.1415 -0.300666,0.1371 -0.447559,-0.073 -0.08601,-0.1227 -0.156378,-0.1749 -0.156378,-0.1158 0,0.059 0.08576,0.1849 0.190572,0.2798 0.181178,0.1639 0.366509,0.7086 0.207718,0.6105 -0.04153,-0.026 -0.1022,0.023 -0.134835,0.108 -0.04594,0.1197 -0.103668,0.1308 -0.255761,0.049 -0.179006,-0.096 -0.202157,-0.063 -0.26083,0.3728 -0.09929,0.737 -0.152063,0.7491 -0.111251,0.025 0.02027,-0.3595 0.01627,-0.5971 -0.0088,-0.528 -0.02517,0.069 -0.109874,0.1257 -0.188238,0.1257 -0.09539,0 -0.142469,0.1147 -0.142469,0.347 0,0.1909 -0.06126,0.3832 -0.136112,0.4275 -0.07487,0.044 -0.161798,0.1483 -0.193206,0.2312 -0.03762,0.099 -0.0598,0.072 -0.06503,-0.079 -0.0067,-0.1951 -0.03723,-0.2142 -0.201795,-0.1261 -0.275825,0.1476 -0.487717,0.034 -0.719372,-0.3855 -0.201473,-0.3649 -0.201473,-0.3649 -0.141482,0.037 0.033,0.2213 0.129172,0.6851 0.213742,1.0308 0.08456,0.3457 0.130923,0.6851 0.103015,0.7543 -0.0279,0.069 -0.055,0.035 -0.06021,-0.075 -0.0074,-0.1577 -0.02882,-0.1706 -0.09912,-0.06 -0.111885,0.1768 -0.611279,-1.3399 -0.611279,-1.8564 0,-0.1908 -0.04576,-0.3468 -0.101677,-0.3468 -0.0642,0 -0.08525,0.3257 -0.0571,0.8835 0.03285,0.6509 0.12509,1.1042 0.350238,1.7211 z m -0.09089,-26.64102 c 0.05531,0 0.10057,0.14708 0.10057,0.32685 0,0.27982 0.03546,0.32686 0.246398,0.32686 0.155623,0 0.211199,-0.0352 0.150856,-0.0955 -0.05255,-0.0525 -0.09554,-0.22493 -0.09554,-0.38308 0,-0.16608 -0.04248,-0.26128 -0.10057,-0.22537 -0.119579,0.0739 -0.119579,-0.68259 0,-1.056 0.04429,-0.13828 0.08503,-0.19218 0.09054,-0.11977 0.0055,0.0724 0.05085,0.10642 0.100742,0.0756 0.04989,-0.0308 0.121449,0.22672 0.159022,0.57235 0.09744,0.89653 0.237789,1.18154 0.581811,1.18154 0.257039,0 0.279134,-0.0304 0.273925,-0.37714 -0.0031,-0.20742 0.02276,-0.92022 0.05749,-1.58398 0.0606,-1.15811 0.05348,-1.22104 -0.176301,-1.55815 -0.277273,-0.40679 -0.501736,-0.48026 -0.823361,-0.26952 -0.200558,0.13141 -0.245393,0.2922 -0.359872,1.2906 -0.07193,0.62727 -0.125512,1.24232 -0.119076,1.36677 0.0064,0.12446 -0.03306,0.22629 -0.08776,0.22629 -0.05469,0 -0.09944,0.0679 -0.09944,0.15085 0,0.083 0.04526,0.15086 0.100571,0.15086 z m 1.202975,15.18612 c 0.182244,0 0.291545,-0.7553 0.323697,-2.237 0.01951,-0.8995 0.07174,-1.48307 0.132743,-1.48346 0.125512,-0.001 -0.0026,3.10446 -0.14985,3.63156 -0.05587,0.2001 -0.101576,0.463 -0.101576,0.5843 0,0.1433 -0.044,0.1982 -0.125714,0.1568 -0.06914,-0.035 -0.04651,0 0.05029,0.081 0.232107,0.1902 0.222251,0.2729 -0.03252,0.2729 -0.251215,0 -0.231705,0.3323 0.02239,0.3812 0.228879,0.044 0.358484,-0.6001 0.485133,-2.4114 0.137047,-1.9602 0.134091,-3.09885 -0.008,-3.09885 -0.06123,0 -0.08527,0.0679 -0.05344,0.15086 0.03184,0.083 0.01263,0.15085 -0.04268,0.15085 -0.0553,0 -0.126619,-0.0679 -0.158459,-0.15085 -0.103659,-0.27014 -0.223881,-0.15894 -0.182415,0.16873 0.02225,0.17576 -0.0021,0.37086 -0.05414,0.43356 -0.05201,0.063 -0.109099,0.6316 -0.126839,1.2644 -0.01774,0.6327 -0.04194,1.3654 -0.05376,1.6281 -0.01183,0.2628 0.02202,0.4777 0.0752,0.4777 z m 0.161175,-4.46253 c 0.05747,0.20205 0.08257,0.19268 0.450767,-0.16823 0.214447,-0.2102 0.419179,-0.49882 0.454962,-0.64138 0.08845,-0.35242 -0.02617,-0.75702 -0.236321,-0.8342 -0.09515,-0.0349 -0.209187,-0.12352 -0.253428,-0.19684 -0.08742,-0.14488 -0.391672,-0.17889 -0.517798,-0.0579 -0.08188,0.0786 -0.0043,1.52543 0.101818,1.89852 z m 1.134215,2.93233 c 0.364277,-0.421 1.056967,-1.614 1.307519,-2.25188 0.134684,-0.34287 0.25027,-0.4926 0.381122,-0.49366 0.249959,-0.002 0.439243,-0.12991 0.439243,-0.2967 0,-0.0864 -0.08196,-0.11967 -0.226284,-0.0918 -0.226284,0.0437 -0.226284,0.0437 0,-0.0565 0.300384,-0.13296 0.320036,-0.6095 0.02514,-0.6095 -0.13409,0 -0.201141,-0.067 -0.201141,-0.20114 0,-0.11063 0.05657,-0.20183 0.125713,-0.20268 0.09119,-0.001 0.09404,-0.0218 0.01041,-0.0754 -0.06342,-0.0406 -0.169441,-0.27754 -0.235596,-0.52645 -0.06617,-0.24892 -0.284464,-0.76634 -0.485113,-1.14984 -0.235456,-0.45002 -0.355426,-0.80664 -0.338339,-1.00571 0.01855,-0.21591 -0.0015,-0.26705 -0.0668,-0.17046 -0.05131,0.0759 -0.15498,0.1174 -0.230378,0.0923 -0.09764,-0.0326 -0.172307,0.12692 -0.259442,0.55411 -0.06729,0.32989 -0.191858,0.67661 -0.27682,0.77049 -0.215352,0.23796 -0.192694,0.84159 0.04629,1.23356 0.246026,0.40353 0.255902,0.83515 0.02824,1.23442 -0.164755,0.28894 -0.261243,1.20156 -0.311397,2.94516 -0.01818,0.6321 -0.01818,0.6321 0.267628,0.3017 z m 1.514091,-11.46356 c 0.06102,0.29312 0.110939,0.66389 0.110939,0.82393 0,0.26924 -0.03193,0.29385 -0.427425,0.32947 -0.427425,0.0385 -0.427425,0.0385 0.0025,0.0561 0.36318,0.0148 0.445417,0.0583 0.529765,0.28021 0.07265,0.19109 0.06217,0.33818 -0.03846,0.53991 -0.13041,0.26141 -0.122434,0.28665 0.139451,0.44135 0.152787,0.0902 0.348578,0.16409 0.435109,0.16409 0.103639,0 0.138648,0.0601 0.102603,0.176 -0.05114,0.16446 -0.04723,0.16433 0.05962,-0.002 0.0629,-0.098 0.168144,-0.15118 0.233887,-0.11826 0.06574,0.0329 0.05164,-0.001 -0.03133,-0.0753 -0.202258,-0.18123 -0.402284,-0.54582 -0.402284,-0.73322 0,-0.19834 0.08811,-0.1922 0.341499,0.0238 0.147014,0.12531 0.127574,0.0693 -0.0675,-0.19443 -0.150696,-0.20374 -0.273996,-0.44134 -0.273996,-0.528 0,-0.1892 0.208997,-0.20592 0.397959,-0.0319 0.07506,0.0692 0.01622,-0.0369 -0.130741,-0.23577 -0.406096,-0.54937 -0.294251,-0.82045 0.172418,-0.41794 0.112227,0.0968 0.0366,-0.0323 -0.168074,-0.28692 -0.204672,-0.25461 -0.372132,-0.51484 -0.372132,-0.57828 0,-0.19595 0.226565,-0.12819 0.539049,0.16121 0.298625,0.27657 0.298625,0.27657 0.0055,-0.11008 -0.271642,-0.35831 -1.576617,-1.37334 -1.765649,-1.37334 -0.04579,0 0.04716,0.26023 0.206552,0.57828 0.159404,0.31806 0.339737,0.81811 0.400753,1.11123 z m -9.778502,16.58086 c 0.03687,-0.037 0.478123,-0.068 0.980563,-0.069 0.502431,-0 0.981399,-0.049 1.06437,-0.1072 0.122434,-0.086 0.11296,-0.095 -0.05029,-0.052 -0.147939,0.04 -0.290407,-0.053 -0.538656,-0.3513 -0.337525,-0.4055 -0.337525,-0.4055 -0.300696,-1.5657 0.03512,-1.1063 0.0491,-1.1708 0.300947,-1.3874 0.145275,-0.125 0.293647,-0.3202 0.329731,-0.4339 0.03608,-0.1137 0.131738,-0.2616 0.212566,-0.3287 0.113233,-0.094 0.146964,-0.386 0.146964,-1.2721 0,-0.718 0.03668,-1.1276 0.09761,-1.0899 0.05369,0.033 0.23797,-0.012 0.409514,-0.1009 0.246005,-0.1273 0.342714,-0.1357 0.457817,-0.04 0.119378,0.099 0.134242,0.091 0.08168,-0.046 -0.04984,-0.1299 -0.140628,-0.1532 -0.404586,-0.1036 -0.272335,0.051 -0.340331,0.031 -0.340331,-0.098 0,-0.089 -0.04081,-0.16209 -0.0907,-0.16209 -0.04988,0 -0.184889,-0.14709 -0.300012,-0.32686 -0.163377,-0.25511 -0.2097,-0.28391 -0.211017,-0.13122 -0.001,0.10761 0.122756,0.32723 0.27487,0.48807 0.230135,0.2433 0.244587,0.2865 0.08609,0.2569 -0.295788,-0.055 -0.564171,-0.49576 -0.572891,-0.9406 -0.01372,-0.69987 0.108566,-1.05026 0.423322,-1.21303 0.159365,-0.0824 0.290901,-0.20525 0.292289,-0.27298 0.0039,-0.19416 0.616528,-0.94738 0.997912,-1.22706 0.458863,-0.3365 0.578522,-0.20374 0.369436,0.4099 -0.201513,0.59141 -0.203454,1.01276 -0.0084,1.83999 0.160511,0.68095 0.127121,0.93929 -0.05841,0.45198 -0.187052,-0.49128 -0.295386,-1.23037 -0.229,-1.56232 0.06319,-0.31592 0.06319,-0.31592 -0.25914,-0.0776 -0.269861,0.19952 -0.298152,0.25598 -0.173846,0.34687 0.164191,0.12006 0.265295,1.51083 0.126196,1.73591 -0.04299,0.0696 -0.04087,0.12 0.0047,0.11207 0.28536,-0.0496 0.347794,0.0229 0.289563,0.33629 -0.06074,0.3268 -0.06074,0.3268 0.08441,0.025 0.07984,-0.1659 0.148835,-0.23957 0.15333,-0.1637 0.0064,0.109 0.03879,0.1127 0.153753,0.017 0.121378,-0.10069 0.205023,-0 0.502853,0.5886 0.196495,0.3902 0.357267,0.8011 0.357267,0.9131 0,0.114 0.06643,0.2037 0.150856,0.2037 0.08297,0 0.150856,0.042 0.150856,0.093 0,0.051 0.140758,0.2336 0.312795,0.4056 0.227832,0.2279 0.300072,0.3794 0.265959,0.5579 -0.02577,0.1347 -0.0081,0.2211 0.0392,0.1918 0.04732,-0.029 0.08604,0.015 0.08604,0.098 0,0.083 -0.04329,0.1776 -0.09618,0.2103 -0.0529,0.033 -0.07047,0.1264 -0.03904,0.2084 0.0647,0.1685 -0.104211,0.4076 -0.399758,0.5658 -0.171051,0.091 -0.189546,0.081 -0.129656,-0.075 0.06639,-0.173 0.05965,-0.1728 -0.135609,0 -0.24145,0.2185 -0.269992,0.3744 -0.05333,0.2913 0.08367,-0.032 0.215644,-0.01 0.293254,0.059 0.11275,0.094 0.155925,0.071 0.214748,-0.1145 0.07085,-0.2228 0.07658,-0.224 0.152244,-0.03 0.111724,0.2858 0.107259,0.4295 -0.0078,0.2514 -0.110779,-0.1714 -0.130923,-0.095 -0.03854,0.1452 0.04585,0.1195 0.09598,0.1335 0.19218,0.054 0.0931,-0.077 0.149901,-0.076 0.199472,0 0.03812,0.062 0.04374,0.1377 0.01249,0.1689 -0.03125,0.031 -0.01156,0.1414 0.04375,0.2448 0.130883,0.2445 -0.05921,0.256 -0.196957,0.012 -0.108516,-0.1923 -0.235506,-0.1192 -0.450325,0.2596 -0.06274,0.1105 -0.329852,0.5472 -0.593588,0.9704 -0.479521,0.7693 -0.479521,0.7693 -0.413939,1.5557 0.06558,0.7864 0.06558,0.7864 -0.299901,1.2651 -0.201021,0.2632 -0.365484,0.5638 -0.365484,0.6678 0,0.1041 0.158962,0.5049 0.353254,0.8907 0.256224,0.5088 0.407311,0.7015 0.549991,0.7015 0.143896,0 0.180092,0.047 0.134784,0.176 -0.05056,0.1437 -0.03704,0.1529 0.07356,0.05 0.07451,-0.069 0.183008,-0.1242 0.241088,-0.1224 0.05808,0 0,0.091 -0.128379,0.1983 -0.233967,0.195 -0.233967,0.195 -0.579789,-0.1793 -0.265778,-0.2877 -0.365836,-0.3428 -0.432303,-0.2379 -0.05751,0.091 -0.108647,0.1006 -0.152576,0.029 -0.07718,-0.1249 -0.36134,-0.041 -0.36134,0.1072 0,0.056 0.154688,0.083 0.344937,0.061 0.189716,-0.022 0.325205,-0.01 0.301088,0.031 -0.02412,0.039 0.01299,0.092 0.08248,0.1185 0.0695,0.026 -0.07731,0.035 -0.326221,0.019 -0.363251,-0.023 -0.484036,-0.08 -0.611992,-0.2902 -0.08769,-0.144 -0.186398,-0.2349 -0.219365,-0.2019 -0.115173,0.1152 0.04368,1.2995 0.207749,1.5488 0.09102,0.1383 0.154296,0.2887 0.140628,0.3343 -0.01368,0.046 0.02025,0.055 0.07537,0.021 0.05511,-0.034 0.203323,0 0.329338,0.078 0.126025,0.077 0.437845,0.2582 0.692942,0.4025 0.463802,0.2625 0.463802,0.2625 0.226284,-0.3919 -0.230136,-0.634 -0.343761,-1.3779 -0.136957,-0.8967 0.08643,0.2012 0.08643,0.2012 0.09743,0 0.0085,-0.1562 0.04098,-0.1323 0.145234,0.1071 0.07382,0.1695 0.164121,0.4184 0.200658,0.5531 0.04893,0.1804 0.01088,0.1522 -0.144329,-0.107 -0.225077,-0.3759 -0.200155,-0.2631 0.128711,0.5827 0.278972,0.7175 0.151791,0.8477 -0.471335,0.4825 -0.252573,-0.148 -0.459225,-0.222 -0.459225,-0.1643 0,0.058 0.06171,0.1048 0.137138,0.1048 0.146702,0 0.202831,0.769 0.06246,0.8558 -0.04108,0.025 -0.05535,0.2618 -0.03173,0.5254 0.08085,0.9022 0.139773,1.133 0.289251,1.133 0.09293,0 0.145737,0.1009 0.144762,0.2766 -0.0011,0.2073 -0.02468,0.24 -0.09394,0.1305 -0.05081,-0.08 -0.06575,-0.1891 -0.0332,-0.2418 0.03336,-0.054 0.0055,-0.063 -0.06378,-0.02 -0.06763,0.042 -0.0998,0.1364 -0.07147,0.2102 0.02832,0.074 0.01595,0.1484 -0.02749,0.1658 -0.04344,0.017 -0.10572,0.1901 -0.138395,0.3837 -0.03269,0.1936 -0.03608,0.2954 -0.0075,0.2263 0.131506,-0.3188 0.437382,-0.052 0.437382,0.3818 0,0.2472 -0.328826,0.4308 -0.487446,0.2722 -0.0876,-0.088 -0.115978,-0.086 -0.115978,0 0,0.066 -0.09051,0.1207 -0.201141,0.1207 -0.131798,0 -0.201142,-0.067 -0.201142,-0.1945 0,-0.136 -0.08111,-0.204 -0.269931,-0.2262 -0.358464,-0.042 -0.408227,-0.2641 -0.386071,-1.7208 0.01941,-1.2766 0.08946,-1.4734 0.454781,-1.2779 0.177145,0.095 0.210776,0.1785 0.164563,0.4096 -0.04486,0.2243 -0.0123,0.3149 0.142951,0.398 0.112951,0.06 0.170055,0.1578 0.13031,0.2221 -0.08941,0.1447 -0.107581,0.8812 -0.02173,0.8812 0.114359,-10e-5 0.155131,-0.5972 0.04392,-0.6434 -0.05937,-0.025 -0.0239,-0.048 0.07882,-0.053 0.127624,-0.01 0.16743,-0.058 0.125713,-0.167 -0.03357,-0.087 -0.06104,-0.2007 -0.06104,-0.2515 0,-0.051 -0.101828,-0.098 -0.226284,-0.1042 -0.182948,-0.01 -0.168506,-0.027 0.07543,-0.089 0.243924,-0.062 0.258366,-0.079 0.07543,-0.089 -0.124456,-0.01 -0.226284,-0.056 -0.226284,-0.1094 0,-0.053 0.06789,-0.071 0.150856,-0.039 0.111603,0.043 0.152656,-0.017 0.157785,-0.2294 0.0038,-0.158 0.02335,-0.4118 0.04342,-0.5639 0.02007,-0.1521 -0.0056,-0.2766 -0.05721,-0.2766 -0.05153,0 -0.0937,0.048 -0.0937,0.1065 0,0.059 -0.04526,0.079 -0.10057,0.044 -0.05531,-0.034 -0.100571,-0.01 -0.100571,0.06 0,0.075 -0.07734,0.052 -0.202569,-0.061 -0.111413,-0.1008 -0.183502,-0.2549 -0.160199,-0.3425 0.162753,-0.6114 0.163638,-0.7067 0.006,-0.6462 -0.161215,0.062 -0.749523,-0.4132 -0.749523,-0.6052 0,-0.055 0.104744,-10e-4 0.232771,0.1194 0.128016,0.1202 0.275101,0.2176 0.326854,0.2164 0.05174,-0 -0.01906,-0.089 -0.157342,-0.1957 -0.245101,-0.1886 -0.251407,-0.2259 -0.250743,-1.4812 0,-0.7444 0.05123,-1.4256 0.120484,-1.6146 0.113403,-0.3094 0.107308,-0.3268 -0.114088,-0.3268 -0.338078,0 -0.479259,-0.2298 -0.448505,-0.7299 0.04431,-0.7206 -0.124607,-0.8606 -1.07158,-0.8882 -0.440066,-0.013 -0.879319,-0.044 -0.976118,-0.069 -0.172197,-0.045 -0.245724,-0.4221 -0.108948,-0.5589 z m 1.628862,-0.6803 c 0.158358,0.1127 0.31376,0.1791 0.345349,0.1476 0.03158,-0.032 0.159465,0.038 0.284183,0.1538 0.242465,0.2259 0.591104,0.2842 0.591104,0.099 0,-0.066 0.09269,-0.089 0.226283,-0.055 0.222855,0.056 0.223237,0.055 0.02514,-0.1005 -0.194825,-0.1525 -0.192542,-0.156 0.07239,-0.1101 0.150433,0.026 0.249596,0.01 0.22034,-0.039 -0.02925,-0.047 -0.174963,-0.092 -0.323807,-0.1 -0.270636,-0.014 -0.270636,-0.014 -0.01921,-0.066 0.251426,-0.052 0.251426,-0.052 0,-0.1272 -0.24665,-0.074 -0.245795,-0.075 0.04526,-0.085 0.407039,-0.014 0.197158,-0.2132 -0.256154,-0.2434 -0.188228,-0.013 -0.398813,-0.058 -0.467955,-0.1018 -0.06914,-0.043 -0.125713,-0.042 -0.125713,0 0,0.045 0.08925,0.1381 0.198335,0.2062 0.252422,0.1576 0.158982,0.4274 -0.14805,0.4274 -0.277243,0 -0.414803,-0.2697 -0.170427,-0.3341 0.155452,-0.041 0.154959,-0.046 -0.0055,-0.057 -0.119971,-0.01 -0.178523,-0.1 -0.183934,-0.2882 -0.0043,-0.1521 -0.03076,-0.22 -0.05866,-0.1508 -0.07137,0.1768 -0.335684,0.157 -0.335684,-0.025 0,-0.083 -0.04526,-0.1508 -0.100571,-0.1508 -0.05531,0 -0.100571,0.1779 -0.100571,0.3954 0,0.3204 0.05466,0.4343 0.287924,0.6004 z m 1.423859,3.9309 c 0.111764,-0.06 0.255851,-0.076 0.320176,-0.036 0.07924,0.049 0.05424,0.1 -0.07751,0.1575 -0.168486,0.074 -0.163679,0.079 0.036,0.041 0.188519,-0.036 0.241078,0.01 0.288808,0.2477 0.03209,0.1605 0.0981,0.2672 0.146683,0.2372 0.142056,-0.088 0.104493,-0.2092 -0.163106,-0.5273 -0.360445,-0.4283 -0.334156,-0.8856 0.08261,-1.437 0.450838,-0.5964 0.483755,-0.717 0.361501,-1.3253 -0.161496,-0.8036 -0.15873,-0.7989 -0.384039,-0.6582 -0.181791,0.1136 -0.184979,0.1436 -0.04415,0.4159 0.143102,0.2767 0.133759,0.3338 -0.163498,0.9986 -0.257984,0.577 -0.558288,1.5385 -0.598325,1.9158 -0.0046,0.043 0.08307,0.03 0.194846,-0.03 z m -0.0093,-9.0502 c 0.05139,0 0.143545,0.2602 0.204772,0.5783 0.06123,0.318 0.178342,0.7285 0.260257,0.9121 0.08191,0.1836 0.102914,0.3054 0.04666,0.2706 -0.05626,-0.035 -0.10228,-0.015 -0.10228,0.043 0,0.059 0.06994,0.1065 0.155412,0.1065 0.124325,0 0.141664,0.073 0.08665,0.3666 -0.04924,0.2625 -0.03627,0.3464 0.04573,0.2957 0.06297,-0.039 0.11449,-0.2052 0.11449,-0.3696 0,-0.1725 0.06359,-0.3234 0.150282,-0.3567 0.08265,-0.032 0.125241,-0.098 0.09464,-0.1477 -0.0306,-0.049 -0.0091,-0.09 0.04798,-0.09 0.05699,0 0.146098,0.1471 0.198003,0.3269 0.07275,0.2519 0.09646,0.275 0.103447,0.1005 0.0055,-0.1379 0.07276,-0.2262 0.172247,-0.2262 0.140447,0 0.143947,-0.023 0.02514,-0.1676 -0.125754,-0.1527 -0.103628,-0.1621 0.248822,-0.1053 0.375842,0.061 0.385004,0.055 0.321886,-0.1966 -0.03573,-0.1424 -0.119297,-0.3197 -0.185714,-0.394 -0.06641,-0.074 -0.18863,-0.2154 -0.271601,-0.3134 -0.139441,-0.1647 -0.153219,-0.1497 -0.182073,0.1976 -0.01717,0.2067 -0.0474,0.3758 -0.0672,0.3758 -0.171936,0 -0.331099,-0.1441 -0.286757,-0.2597 0.03009,-0.078 0.0046,-0.1425 -0.05663,-0.1425 -0.06123,0 -0.111332,0.068 -0.111332,0.1508 0,0.083 -0.04041,0.1509 -0.08981,0.1509 -0.132341,0 -0.210896,-0.2638 -0.219626,-0.7374 -0.0077,-0.4192 -0.0077,-0.4192 -0.132482,-0.017 -0.138133,0.4454 -0.188851,0.3763 -0.31385,-0.4274 -0.07345,-0.4723 -0.350509,-0.6114 -0.350509,-0.176 0,0.1383 0.04205,0.2514 0.09344,0.2514 z m 1.020893,-3.94741 c 0.05638,-0.0968 0.14809,-0.17599 0.203786,-0.17599 0.05571,0 0.03083,0.10058 -0.05528,0.22351 -0.170869,0.24396 -0.199441,0.37991 -0.07983,0.37991 0.0422,0 0.121399,-0.10183 0.175999,-0.22628 0.05698,-0.12989 0.194554,-0.2311 0.322932,-0.23757 0.134131,-0.007 0.197239,0.0314 0.157665,0.0955 -0.102482,0.16581 -0.09753,0.57763 0.0077,0.64268 0.05203,0.0322 0.06231,0.006 0.02285,-0.0576 -0.04253,-0.0688 -0.0078,-0.11611 0.08502,-0.11611 0.08624,0 0.156789,-0.0528 0.156789,-0.11733 0,-0.0645 0.0239,-0.0934 0.0531,-0.0642 0.0292,0.0292 0.0088,0.16951 -0.04525,0.31178 -0.06652,0.17495 -0.06426,0.27003 0.0069,0.29377 0.145707,0.0486 -0.07489,0.84638 -0.252915,0.9147 -0.20625,0.0791 -0.592572,-0.15279 -0.764387,-0.4589 -0.129706,-0.23108 -0.132813,-0.30735 -0.01992,-0.48811 0.09596,-0.15367 0.103025,-0.24501 0.02496,-0.32307 -0.134815,-0.13482 -0.134896,-0.36534 0,-0.5966 z"
       id="path3049"
       inkscape:connector-curvature="0"
       sodipodi:nodetypes="ccssssccccsscscccccsscssccscsccccsccsscscscssscccccsscccscssccccssssccsccsccscsscsssssssssssssccscsscccscccscscsccscsscsssssscccscsssscccsssccccscsssccssscccccssscssscscssscccsssssscssccssccscccccsccssccsscsscssccssssccsssscccscscccssssssssccccssccccccccscssssssccscccscscsscssscscssssscccscssscccsssscsssscsscscccssscsscscsssscsscsssscssccsccscsccccsscssccccccccccsssccssssscccccsscscssssscsccsscsssscscccsccccscscccscsssssssccscccsssssscssscccsccccssssccsssscscccccsssscscscsccsssccsssccsscscssccscccsssscccsccsscsccscccccccsssssssccsccccssscsccccccsccccccsssscsscccsscccscsssssccscscccscscscccsssssccsccsccsssscccccsssccssssssscscsccsssccccssscssscscccssscssccscssscscssccsscssscccsscscscscccssccccssccc" />
  </g>
</svg>
