<?xml version="1.0" encoding="UTF-8" standalone="no"?>
<!-- Created with Inkscape (http://www.inkscape.org/) -->

<svg
   xmlns:dc="http://purl.org/dc/elements/1.1/"
   xmlns:cc="http://creativecommons.org/ns#"
   xmlns:rdf="http://www.w3.org/1999/02/22-rdf-syntax-ns#"
   xmlns:svg="http://www.w3.org/2000/svg"
   xmlns="http://www.w3.org/2000/svg"
   xmlns:xlink="http://www.w3.org/1999/xlink"
   xmlns:sodipodi="http://sodipodi.sourceforge.net/DTD/sodipodi-0.dtd"
   xmlns:inkscape="http://www.inkscape.org/namespaces/inkscape"
   width="100"
   height="100"
   id="svg57"
   sodipodi:version="0.32"
   inkscape:version="0.48.0 r9654"
   sodipodi:docname="Muell.svg"
   version="1.1">
  <defs
     id="defs3">
    <linearGradient
       id="linearGradient381"
       inkscape:collect="always">
      <stop
         id="stop382"
         offset="0"
         style="stop-color:#ffffff;stop-opacity:1;" />
      <stop
         id="stop383"
         offset="1"
         style="stop-color:#ffffff;stop-opacity:0;" />
    </linearGradient>
    <linearGradient
       id="linearGradient368">
      <stop
         style="stop-color:#ffffff;stop-opacity:0.10309278;"
         offset="0.0000000"
         id="stop369" />
      <stop
         style="stop-color:#ffffff;stop-opacity:0.0000000;"
         offset="1.0000000"
         id="stop372" />
    </linearGradient>
    <linearGradient
       id="linearGradient1065">
      <stop
         style="stop-color:#b5c051;stop-opacity:1.0000000;"
         offset="0.0000000"
         id="stop1066" />
      <stop
         style="stop-color:#858e3f;stop-opacity:1.0000000;"
         offset="1.0000000"
         id="stop1067" />
    </linearGradient>
    <linearGradient
       id="linearGradient172">
      <stop
         id="stop173"
         offset="0.0000000"
         style="stop-color:#616c08;stop-opacity:1.0000000;" />
      <stop
         id="stop174"
         offset="1.0000000"
         style="stop-color:#495106;stop-opacity:1.0000000;" />
    </linearGradient>
    <linearGradient
       id="linearGradient161">
      <stop
         id="stop162"
         offset="0.0000000"
         style="stop-color:#575955;stop-opacity:1.0000000;" />
      <stop
         id="stop163"
         offset="1.0000000"
         style="stop-color:#7c7e79;stop-opacity:1.0000000;" />
    </linearGradient>
    <linearGradient
       id="linearGradient157">
      <stop
         id="stop158"
         offset="0.0000000"
         style="stop-color:#babdb6;stop-opacity:1.0000000;" />
      <stop
         id="stop159"
         offset="1.0000000"
         style="stop-color:#f1f5ec;stop-opacity:1.0000000;" />
    </linearGradient>
    <linearGradient
       id="linearGradient149"
       inkscape:collect="always">
      <stop
         id="stop150"
         offset="0"
         style="stop-color:#000000;stop-opacity:1;" />
      <stop
         id="stop151"
         offset="1"
         style="stop-color:#000000;stop-opacity:0;" />
    </linearGradient>
    <linearGradient
       id="linearGradient1869">
      <stop
         style="stop-color:#eff3f4;stop-opacity:1.0000000;"
         offset="0.0000000"
         id="stop1870" />
      <stop
         style="stop-color:#939596;stop-opacity:1.0000000;"
         offset="1.0000000"
         id="stop1871" />
    </linearGradient>
    <linearGradient
       gradientUnits="userSpaceOnUse"
       y2="69.460503"
       x2="7.5291119"
       y1="27.376621"
       x1="7.3738608"
       gradientTransform="matrix(3.495016,0,0,0.344323,-2.972087,-0.03408148)"
       id="linearGradient152"
       xlink:href="#linearGradient149"
       inkscape:collect="always" />
    <linearGradient
       inkscape:collect="always"
       xlink:href="#linearGradient1065"
       id="linearGradient3103"
       gradientUnits="userSpaceOnUse"
       gradientTransform="matrix(0.64261238,0,0,0.46494759,-3.4331881,-0.39601292)"
       x1="10.861447"
       y1="33.139202"
       x2="30.587307"
       y2="37.720802" />
    <linearGradient
       inkscape:collect="always"
       xlink:href="#linearGradient172"
       id="linearGradient3105"
       gradientUnits="userSpaceOnUse"
       gradientTransform="matrix(0.64261238,0,0,0.46494759,-3.4331881,-0.39601292)"
       x1="19.347122"
       y1="23.114082"
       x2="19.672924"
       y2="52.625473" />
    <linearGradient
       inkscape:collect="always"
       xlink:href="#linearGradient149"
       id="linearGradient3107"
       gradientUnits="userSpaceOnUse"
       gradientTransform="matrix(1.9104063,0,0,0.18820997,-4.8306776,-0.58854003)"
       x1="7.3738608"
       y1="27.376621"
       x2="7.5291119"
       y2="69.460503" />
    <linearGradient
       inkscape:collect="always"
       xlink:href="#linearGradient368"
       id="linearGradient3109"
       gradientUnits="userSpaceOnUse"
       gradientTransform="matrix(0.64261293,0,0,0.46494759,-3.4689551,-0.32562392)"
       x1="17.573946"
       y1="25.335417"
       x2="25.31245"
       y2="48.805084" />
    <linearGradient
       inkscape:collect="always"
       xlink:href="#linearGradient381"
       id="linearGradient3111"
       gradientUnits="userSpaceOnUse"
       gradientTransform="matrix(0.66449532,0,0,0.44963599,-3.4535171,-0.39601292)"
       x1="19.977491"
       y1="38.962704"
       x2="19.857769"
       y2="23.600779" />
    <linearGradient
       inkscape:collect="always"
       xlink:href="#linearGradient1869"
       id="linearGradient3113"
       gradientUnits="userSpaceOnUse"
       gradientTransform="matrix(0.80072334,0,0,0.26013439,13.672146,-19.249082)"
       x1="-4.6375198"
       y1="104.38752"
       x2="-4.523921"
       y2="110.61378" />
    <linearGradient
       inkscape:collect="always"
       xlink:href="#linearGradient161"
       id="linearGradient3115"
       gradientUnits="userSpaceOnUse"
       gradientTransform="matrix(1.2981663,0,0,0.27697267,-4.7926497,-0.58115054)"
       x1="2.9325604"
       y1="21.169638"
       x2="19.737663"
       y2="21.169638" />
    <linearGradient
       inkscape:collect="always"
       xlink:href="#linearGradient157"
       id="linearGradient3117"
       gradientUnits="userSpaceOnUse"
       gradientTransform="matrix(0.4222487,0,0,0.85152898,-4.7926497,-0.56817245)"
       x1="55.208271"
       y1="6.8897982"
       x2="60.685902"
       y2="6.8897982" />
  </defs>
  <sodipodi:namedview
     showborder="true"
     id="base"
     pagecolor="#ffffff"
     bordercolor="#666666"
     borderopacity="1.0"
     inkscape:pageopacity="0.0"
     inkscape:pageshadow="2"
     inkscape:zoom="2.8284271"
     inkscape:cx="153.91691"
     inkscape:cy="-32.526483"
     inkscape:current-layer="layer1"
     showgrid="false"
     inkscape:grid-bbox="true"
     inkscape:document-units="px"
     inkscape:window-width="1920"
     inkscape:window-height="1178"
     inkscape:window-x="-8"
     inkscape:window-y="-8"
     inkscape:showpageshadow="false"
     inkscape:object-nodes="true"
     inkscape:object-points="true"
     inkscape:object-bbox="true"
     inkscape:guide-bbox="false"
     inkscape:grid-points="true"
     inkscape:window-maximized="1">
    <inkscape:grid
       id="GridFromPre046Settings"
       type="xygrid"
       originx="0px"
       originy="0px"
       spacingx="1px"
       spacingy="1px"
       color="#0000ff"
       empcolor="#0000ff"
       opacity="0.2"
       empopacity="0.4"
       empspacing="4"
       visible="true"
       enabled="true"
       snapvisiblegridlinesonly="true" />
  </sodipodi:namedview>
  <metadata
     id="metadata4">
    <rdf:RDF>
      <cc:Work
         rdf:about="">
        <dc:format>image/svg+xml</dc:format>
        <dc:type
           rdf:resource="http://purl.org/dc/dcmitype/StillImage" />
        <dc:title>Trash Empty</dc:title>
        <dc:date>2003-02-04</dc:date>
        <dc:creator>
          <cc:Agent>
            <dc:title>Jakub Steiner</dc:title>
          </cc:Agent>
        </dc:creator>
        <dc:subject>
          <rdf:Bag>
            <rdf:li>trash</rdf:li>
            <rdf:li>delete</rdf:li>
            <rdf:li>deleted files</rdf:li>
            <rdf:li>waste</rdf:li>
            <rdf:li>recycle</rdf:li>
            <rdf:li>bin</rdf:li>
            <rdf:li>empty</rdf:li>
          </rdf:Bag>
        </dc:subject>
        <dc:publisher>
          <cc:Agent>
            <dc:title>Novell, Inc.</dc:title>
          </cc:Agent>
        </dc:publisher>
        <cc:license
           rdf:resource="http://creativecommons.org/licenses/by-sa/2.0/" />
        <dc:contributor>
          <cc:Agent>
            <dc:title>Garrett LeSage</dc:title>
          </cc:Agent>
        </dc:contributor>
      </cc:Work>
      <cc:License
         rdf:about="http://creativecommons.org/licenses/by-sa/2.0/">
        <cc:permits
           rdf:resource="http://web.resource.org/cc/Reproduction" />
        <cc:permits
           rdf:resource="http://web.resource.org/cc/Distribution" />
        <cc:requires
           rdf:resource="http://web.resource.org/cc/Notice" />
        <cc:requires
           rdf:resource="http://web.resource.org/cc/Attribution" />
        <cc:permits
           rdf:resource="http://web.resource.org/cc/DerivativeWorks" />
        <cc:requires
           rdf:resource="http://web.resource.org/cc/ShareAlike" />
      </cc:License>
    </rdf:RDF>
  </metadata>
  <g
     id="layer1"
     inkscape:label="Layer 1"
     inkscape:groupmode="layer"
     transform="translate(0,52)">
    <g
       id="g3058"
       transform="matrix(1.8294621,0,0,1.8294621,6.1172373,-50.854493)">
      <g
         inkscape:export-ydpi="74.800003"
         inkscape:export-xdpi="74.800003"
         inkscape:export-filename="/home/jimmac/ximian_art/icons/nautilus/suse93/gnome-fs-directory.png"
         transform="matrix(1.030048,0,-0.165186,-0.642915,2.47714,64.74043)"
         style="fill-rule:nonzero;stroke:#000000;stroke-width:0.54660875;stroke-miterlimit:4"
         id="g189">
        <g
           id="g190"
           style="stroke:none">
          <g
             id="g191">
            <g
               id="g192"
               style="opacity:0">
              <path
                 inkscape:connector-curvature="0"
                 id="path193"
                 d="M 9.9,39.7 C 8,39.7 5.7,38.3 4.8,36.6 L 3,33.1 C 2.1,31.4 2.5,28.9 3.9,27.5 l 0.8,-0.8 c 1.4,-1.4 4.1,-2.5 6,-2.5 l 29,0 c 1.9,0 4.7,1 6.2,2.2 l 1.7,1.4 c 1.5,1.2 2.1,3.7 1.4,5.4 l -1.3,3.1 c -0.7,1.8 -2.9,3.2 -4.9,3.2 L 9.9,39.7 z" />
            </g>
            <g
               id="g194"
               style="opacity:0.01360001">
              <path
                 inkscape:connector-curvature="0"
                 id="path195"
                 d="M 5,27.5 C 6.4,26.1 9,25 11,25 l 28.8,0 c 1.9,0 4.7,1 6.2,2.3 l 1,0.9 c 1.5,1.2 2.1,3.7 1.3,5.5 l -1,2.5 c -0.7,1.8 -2.9,3.2 -4.9,3.2 L 10.3,39.5 C 8.4,39.5 6.1,38.1 5.2,36.4 L 3.7,33.6 C 2.8,31.9 3.2,29.3 4.5,28 L 5,27.5 z" />
            </g>
            <g
               id="g196"
               style="opacity:0.02729995">
              <path
                 inkscape:connector-curvature="0"
                 id="path197"
                 d="m 5.4,28.3 c 1.3,-1.4 3.9,-2.5 5.8,-2.5 l 28.6,0 c 1.9,0 4.7,1 6.1,2.3 l 0.5,0.4 c 1.4,1.3 2,3.8 1.3,5.6 L 47,35.9 c -0.7,1.8 -2.9,3.2 -4.8,3.2 L 11,39.2 C 9.1,39.2 6.8,37.8 5.9,36.1 L 4.7,34 C 3.8,32.3 4.1,29.7 5.4,28.4 l 0,-0.1 z" />
            </g>
            <g
               id="g198"
               style="opacity:0.04090002">
              <path
                 inkscape:connector-curvature="0"
                 id="path199"
                 d="M 5.9,28.9 C 7,27.6 9.5,26.6 11.4,26.6 l 28.4,0 c 1.9,0 4.6,1.1 6,2.4 1.4,1.3 1.9,3.8 1.1,5.6 l -0.5,1.1 c -0.7,1.8 -2.9,3.2 -4.8,3.3 L 11.3,39 C 9.4,39 7.1,37.6 6.2,35.9 L 5.4,34.4 C 4.5,32.7 4.7,30.2 5.8,28.9 l 0.1,0 z" />
            </g>
            <g
               id="g200"
               style="opacity:0.05449997">
              <path
                 inkscape:connector-curvature="0"
                 id="path201"
                 d="m 6.5,29.5 c 1,-1.2 3.3,-2.1 5.2,-2.1 l 28.1,0 c 1.9,0 4.5,1 5.6,2.2 1.1,1.2 1.5,3.6 0.8,5.4 L 46,35.4 c -0.7,1.8 -2.9,3.2 -4.8,3.3 L 11.7,38.8 C 9.8,38.8 7.5,37.4 6.6,35.7 L 6.2,34.9 C 5.3,33.2 5.4,30.8 6.4,29.6 l 0.1,-0.1 z" />
            </g>
            <g
               id="g202"
               style="opacity:0.06820003">
              <path
                 inkscape:connector-curvature="0"
                 id="path203"
                 d="m 7,30.1 c 0.8,-1.1 3,-2 4.9,-2 l 27.9,0 c 1.9,0 4.3,0.9 5.3,2 1,1.1 1.2,3.4 0.5,5.1 -0.7,1.7 -2.9,3.1 -4.8,3.1 L 12.2,38.4 C 10.3,38.4 8,37 7.1,35.3 L 7,35.1 C 6.1,33.4 6.1,31.1 6.9,30 L 7,30.1 z" />
            </g>
            <g
               id="g204"
               style="opacity:0.08179997">
              <path
                 inkscape:connector-curvature="0"
                 id="path205"
                 d="m 7.5,30.7 c 0.6,-1 2.7,-1.8 4.7,-1.8 l 27.7,0 c 1.9,0 4.1,0.8 4.9,1.8 0.8,1 0.9,3.1 0.3,4.6 -0.6,1.5 -2.7,2.8 -4.6,2.8 L 12.8,38.2 C 10.9,38.2 8.7,36.9 7.9,35.3 7.1,33.7 7,31.6 7.6,30.6 l -0.1,0.1 z" />
            </g>
            <g
               id="g206"
               style="opacity:0.09549997">
              <path
                 inkscape:connector-curvature="0"
                 id="path207"
                 d="m 8.1,31.3 c 0.5,-0.9 2.4,-1.6 4.4,-1.6 l 27.5,0 c 1.9,0 4,0.7 4.6,1.6 0.6,0.9 0.6,2.8 0.1,4.1 -0.5,1.3 -2.6,2.5 -4.5,2.5 L 13.2,38 C 11.3,38 9.1,36.8 8.5,35.4 7.8,34 7.7,32.1 8.1,31.2 l 0,0.1 z" />
            </g>
            <g
               id="g208"
               style="opacity:0.10909998">
              <path
                 inkscape:connector-curvature="0"
                 id="path209"
                 d="m 8.6,31.9 c 0.3,-0.8 2.1,-1.4 4.1,-1.4 l 27.2,0 c 1.9,0 3.8,0.7 4.2,1.5 0.4,0.8 0.3,2.4 -0.1,3.6 -0.4,1.2 -2.4,2.1 -4.4,2.1 l -26,0.1 c -1.9,0 -4,-1 -4.5,-2.2 C 8.5,34.4 8.3,32.7 8.6,32 l 0,-0.1 z" />
            </g>
            <g
               id="g210"
               style="opacity:0.12269999">
              <path
                 inkscape:connector-curvature="0"
                 id="path211"
                 d="M 9.2,32.5 C 9.3,31.8 11,31.3 13,31.3 l 27,0 c 1.9,0 3.7,0.6 3.9,1.3 0.2,0.7 0,2.1 -0.3,3.1 -0.4,1 -2.3,1.8 -4.2,1.8 L 14.2,37.6 C 12.3,37.6 10.3,36.7 9.8,35.7 9.3,34.6 9.1,33.2 9.2,32.6 l 0,-0.1 z" />
            </g>
            <g
               id="g212"
               style="opacity:0.13639999">
              <path
                 inkscape:connector-curvature="0"
                 id="path213"
                 d="m 9.7,33.1 c 0,-0.6 1.6,-1 3.5,-1 l 26.8,0 c 1.9,0 3.5,0.5 3.5,1.1 0,0.6 -0.2,1.8 -0.6,2.6 -0.4,0.8 -2.1,1.5 -4.1,1.5 l -24.3,0 c -1.9,0 -3.8,-0.7 -4.2,-1.6 C 9.9,34.8 9.6,33.6 9.6,33.1 l 0.1,0 z" />
            </g>
            <g
               id="g214"
               style="opacity:0.15">
              <path
                 inkscape:connector-curvature="0"
                 id="path215"
                 d="m 15,37 c -1.9,0 -3.9,-0.9 -4.3,-2.1 -0.4,-1.2 0.8,-2.1 2.7,-2.1 l 26.6,0 c 1.9,0 3.2,0.9 2.7,2.1 C 42.3,36 40.4,37 38.5,37 L 15,37 z" />
            </g>
          </g>
        </g>
      </g>
      <g
         id="g3964">
        <path
           transform="matrix(0.997091,0,0,1.011161,0.175269,-0.497829)"
           inkscape:connector-curvature="0"
           style="fill:url(#linearGradient3103);fill-opacity:1;fill-rule:evenodd;stroke:url(#linearGradient3105);stroke-width:0.54437608;stroke-linecap:butt;stroke-linejoin:miter;stroke-miterlimit:4;stroke-opacity:1;stroke-dasharray:none"
           d="m 3.836697,16.810238 c -0.044089,-0.03506 1.731963,25.223968 1.732469,25.231625 0.166614,2.522544 1.565267,3.444491 3.130763,3.448247 0.055941,1.29e-4 29.36948,-0.0032 29.994007,-0.0059 2.636366,-0.01109 3.282248,-1.61654 3.455675,-3.370659 0.01391,-0.03458 1.789053,-25.268751 1.80296,-25.303337 -13.371957,0 -26.743914,0 -40.115874,0 z"
           id="path1751"
           sodipodi:nodetypes="ccccccc"
           inkscape:r_cx="true"
           inkscape:r_cy="true" />
        <path
           transform="matrix(1.007266,0,0,1.010724,-0.252168,-0.110549)"
           inkscape:connector-curvature="0"
           style="color:#000000;fill:url(#linearGradient3107);fill-opacity:1;fill-rule:nonzero;stroke:none;stroke-width:0;marker:none;visibility:visible;display:block"
           d="M 43.188383,18.930946 7.1998593,18.907789 c 27.1142967,0.630566 32.4414867,3.60944 35.7465157,3.457235 l 0.242008,-3.434078 z"
           id="path1893"
           sodipodi:nodetypes="cccc"
           inkscape:r_cx="true"
           inkscape:r_cy="true" />
        <g
           style="fill:#ffffff;fill-opacity:0.48809521"
           transform="matrix(1.402179,0,0,1.438944,-66.03801,-8.126386)"
           id="g144"
           inkscape:r_cx="true"
           inkscape:r_cy="true">
          <path
             inkscape:connector-curvature="0"
             sodipodi:nodetypes="ccccccscc"
             id="path41"
             d="m 64.131147,25.325447 3.796986,0.289697 1.468264,-3.574559 -1.737263,1.220989 c 0,0 -0.744908,-1.737405 -1.280311,-1.877076 -0.535402,-0.13967 -2.819691,-0.09311 -2.819691,-0.09311 0.726563,0.179688 1.291235,1.428127 1.299915,1.442289 0.22667,0.369856 0.861173,1.614383 0.861173,1.614383 l -1.589073,0.97739 z"
             style="fill-rule:evenodd;stroke:none"
             inkscape:r_cx="true"
             inkscape:r_cy="true" />
          <path
             inkscape:connector-curvature="0"
             sodipodi:nodetypes="ccczc"
             id="path130"
             d="m 64.600893,22.852762 -1.256872,2.397672 -2.5839,-1.629486 c 0,0 1.171698,-2.211445 2.095054,-2.211445 0.931167,0 1.347281,0.802634 1.745718,1.443259 z"
             style="color:#000000;fill-opacity:0.30952382;fill-rule:evenodd;stroke:none;stroke-width:1px;marker:none;visibility:visible;display:inline;overflow:visible"
             inkscape:r_cx="true"
             inkscape:r_cy="true" />
          <path
             inkscape:connector-curvature="0"
             sodipodi:nodetypes="ccccccscc"
             id="path139"
             d="m 66.450976,28.545542 -2.448028,2.925737 2.336128,3.01678 0.04321,-1.900121 c 0,0 1.720763,0.162391 2.115702,-0.225149 0.394937,-0.38754 2.037947,-2.341519 2.037947,-2.341519 -0.527497,0.530969 -1.888664,0.373874 -1.905274,0.374044 -0.433766,0.0044 -2.150557,-0.03566 -2.150557,-0.03566 l -0.02913,-1.814112 z"
             style="fill-rule:evenodd;stroke:none"
             inkscape:r_cx="true"
             inkscape:r_cy="true" />
          <path
             inkscape:connector-curvature="0"
             sodipodi:nodetypes="ccczc"
             id="path140"
             d="m 68.748409,30.061355 -1.411063,-2.310293 2.725645,-1.379355 c 0,0 1.29507,2.141531 0.8206,2.933658 -0.478482,0.798828 -1.380866,0.743367 -2.135182,0.75599 z"
             style="color:#000000;fill-opacity:0.30952382;fill-rule:evenodd;stroke:none;stroke-width:1px;marker:none;visibility:visible;display:inline;overflow:visible"
             inkscape:r_cx="true"
             inkscape:r_cy="true" />
          <path
             inkscape:connector-curvature="0"
             sodipodi:nodetypes="ccccccscc"
             id="path142"
             d="m 62.170193,28.37565 -1.208497,-3.182719 -3.523941,0.24904 1.446617,1.053806 c 0,0 -0.999037,1.410433 -0.860135,1.946036 0.138902,0.535602 0.922543,2.754594 0.922543,2.754594 -0.197098,-0.722035 0.617989,-1.823438 0.626127,-1.837919 0.212539,-0.378153 1.10357,-1.846158 1.10357,-1.846158 l 1.493716,0.86332 z"
             style="fill-rule:evenodd;stroke:none"
             inkscape:r_cx="true"
             inkscape:r_cy="true" />
          <path
             inkscape:connector-curvature="0"
             sodipodi:nodetypes="ccczc"
             id="path143"
             d="m 59.752772,29.661147 2.706208,-0.07067 -0.163985,3.050389 c 0,0 -2.502082,0.05431 -2.951982,-0.752026 -0.453705,-0.813157 0.04446,-1.567613 0.409759,-2.227696 z"
             style="color:#000000;fill-opacity:0.30952382;fill-rule:evenodd;stroke:none;stroke-width:1px;marker:none;visibility:visible;display:inline;overflow:visible"
             inkscape:r_cx="true"
             inkscape:r_cy="true" />
        </g>
        <path
           transform="matrix(0.997091,0,0,1.011161,0.253928,-0.654813)"
           inkscape:connector-curvature="0"
           sodipodi:nodetypes="cccssssc"
           id="path344"
           d="m 41.62473,23.651808 c -5.325371,2.33441 -12.620527,4.669183 -18.568512,4.71875 -6.539985,0.0545 -11.358669,3.160467 -16.2399269,5.544194 0.1946769,2.880217 0.4093909,4.891194 0.674556,8.116767 0.1322673,1.608953 0.637924,1.570733 2.9403709,1.570733 9.11145,0 21.065416,0.01294 28.257583,0.01294 1.760538,0 1.559573,-1.251731 1.654679,-2.450444 0.460397,-5.802858 0.874247,-11.688495 1.28125,-17.512944 z"
           style="fill:url(#linearGradient3109);fill-opacity:1;fill-rule:evenodd;stroke:none"
           inkscape:r_cx="true"
           inkscape:r_cy="true" />
        <path
           transform="matrix(0.997091,0,0,1.011161,0.219976,-0.497829)"
           inkscape:connector-curvature="0"
           style="fill:none;stroke:url(#linearGradient3111);stroke-width:0.54437608;stroke-linecap:butt;stroke-linejoin:miter;stroke-miterlimit:4;stroke-opacity:0.2857143;stroke-dasharray:none"
           d="m 5.2098606,19.402822 c -0.051406,-1.32e-4 0.8391931,12.6756 1.5467643,21.565562 0.1825359,2.28199 0.5535262,3.21077 1.9911541,3.21077 11.851299,0 28.69411,0.08515 29.267626,0.08307 2.774576,-0.01005 2.72265,-1.026034 2.952439,-3.184709 0.08365,-0.785834 1.536974,-21.586304 1.523109,-21.586304 -9.929964,0 -25.012293,-0.05677 -37.2810924,-0.08839 z"
           id="path375"
           sodipodi:nodetypes="cssssss"
           inkscape:r_cx="true"
           inkscape:r_cy="true" />
      </g>
      <path
         inkscape:connector-curvature="0"
         inkscape:r_cy="true"
         inkscape:r_cx="true"
         transform="matrix(1.021485,0,0,1.028865,-0.537224,-0.298421)"
         sodipodi:nodetypes="cssssscss"
         id="path1841"
         d="M 7.538492,4.7306315 C 6.494167,4.7330003 5.620149,4.7569809 5.144078,5.7442051 5.061333,5.9157934 2.539129,12.879834 2.417869,13.145414 c -1.038105,2.273602 -0.08076,5.137624 1.92431,5.118449 0.381315,-0.0035 39.510222,0.01776 40.116984,0 1.706821,-0.04908 1.925238,-3.365584 1.190463,-4.857527 -0.04163,-0.08452 -3.451799,-7.7570361 -3.538774,-7.8929342 -0.402274,-0.6069229 -1.30313,-0.8729138 -1.972297,-0.8480012 -0.131821,0.00503 -32.4696,0.064936 -32.600063,0.065231 z"
         style="fill:url(#linearGradient3113);fill-opacity:1;fill-rule:evenodd;stroke:#4d5506;stroke-width:0.5331893;stroke-linecap:butt;stroke-linejoin:miter;stroke-miterlimit:4;stroke-opacity:1;stroke-dasharray:none" />
      <path
         inkscape:connector-curvature="0"
         inkscape:r_cy="true"
         inkscape:r_cx="true"
         transform="matrix(1.005586,0,0,1.027013,-0.134078,-0.270972)"
         sodipodi:nodetypes="cssssscss"
         id="path1864"
         d="M 7.72045,6.3900545 C 6.735524,6.3773223 6.671388,6.3392466 6.449677,7.0362462 6.398497,7.1971422 4.336482,13.531607 4.255655,13.777418 c -0.274879,0.835953 0.113825,1.05657 1.067748,1.039577 0.337924,-0.006 37.346756,0 37.884766,0 0.763772,0 0.990332,-0.2516 0.817805,-0.845397 C 43.955868,13.730313 41.085266,6.9669634 41.008179,6.8465153 40.651639,6.3085929 40.713471,6.3101594 40.09072,6.3025755 39.973809,6.301151 7.836071,6.3915492 7.72045,6.3900545 z"
         style="color:#000000;fill:url(#linearGradient3115);fill-opacity:1;fill-rule:evenodd;stroke:none;stroke-width:0;marker:none;visibility:visible;display:block" />
      <path
         inkscape:connector-curvature="0"
         inkscape:r_cy="true"
         inkscape:r_cx="true"
         transform="matrix(1.005586,0,0,1.028865,-0.134078,-0.298421)"
         sodipodi:nodetypes="cccccc"
         id="path1880"
         d="m 7.191437,6.3869852 c -0.370875,0.028313 -0.54926,0.1382019 -0.704493,0.6262163 -0.05118,0.1608959 -2.11093,6.4860145 -2.191758,6.7318255 -0.274879,0.835948 0.089771,1.060685 1.043695,1.043693 0.016523,-2.92e-4 1.953333,2.42e-4 2.136667,0 L 7.191437,6.3869852 z"
         style="color:#000000;fill:#2e3436;fill-opacity:1;fill-rule:evenodd;stroke:none;stroke-width:0;marker:none;visibility:visible;display:block" />
      <path
         inkscape:connector-curvature="0"
         inkscape:r_cy="true"
         inkscape:r_cx="true"
         transform="matrix(1.005586,0,0,1.028865,-0.134078,-0.298421)"
         sodipodi:nodetypes="cscccc"
         id="path1888"
         d="m 40.143457,6.2999077 c 0.450756,0.00385 0.583121,-0.00518 0.871284,0.5395238 0.03941,0.074491 2.874397,6.7931695 2.976187,7.0389795 0.34617,0.947104 -0.31313,0.927301 -1.358836,0.954772 -0.198658,-2.93e-4 -2.548854,-0.02199 -2.779734,-0.02223 l 0.291099,-8.5110423 z"
         style="color:#000000;fill:url(#linearGradient3117);fill-opacity:1;fill-rule:evenodd;stroke:none;stroke-width:0;marker:none;visibility:visible;display:block" />
    </g>
  </g>
</svg>
