<?xml version="1.0" encoding="UTF-8" standalone="no"?>
<!-- Generator: Adobe Illustrator 14.0.0, SVG Export Plug-In . SVG Version: 6.00 Build 43363)  -->

<svg
   xmlns:dc="http://purl.org/dc/elements/1.1/"
   xmlns:cc="http://creativecommons.org/ns#"
   xmlns:rdf="http://www.w3.org/1999/02/22-rdf-syntax-ns#"
   xmlns:svg="http://www.w3.org/2000/svg"
   xmlns="http://www.w3.org/2000/svg"
   xmlns:xlink="http://www.w3.org/1999/xlink"
   xmlns:sodipodi="http://sodipodi.sourceforge.net/DTD/sodipodi-0.dtd"
   xmlns:inkscape="http://www.inkscape.org/namespaces/inkscape"
   version="1.1"
   id="Ebene_1"
   x="0px"
   y="0px"
   width="100"
   height="100"
   viewBox="0 0 100 100"
   enable-background="new 0 0 640 480"
   xml:space="preserve"
   inkscape:version="0.48.0 r9654"
   sodipodi:docname="Auto.svg"><metadata
   id="metadata25"><rdf:RDF><cc:Work
       rdf:about=""><dc:format>image/svg+xml</dc:format><dc:type
         rdf:resource="http://purl.org/dc/dcmitype/StillImage" /></cc:Work></rdf:RDF></metadata><defs
   id="defs23"><linearGradient
     id="linearGradient3823"><stop
       style="stop-color:#315169;stop-opacity:1;"
       offset="0"
       id="stop3825" /><stop
       id="stop3833"
       offset="0.5"
       style="stop-color:#4a7b9f;stop-opacity:1;" /><stop
       style="stop-color:#315169;stop-opacity:1;"
       offset="1"
       id="stop3827" /></linearGradient><linearGradient
     inkscape:collect="always"
     xlink:href="#linearGradient3823"
     id="linearGradient3964"
     gradientUnits="userSpaceOnUse"
     gradientTransform="translate(-5.416786e-7,1.7164507e-6)"
     x1="39.74715"
     y1="36.091953"
     x2="60.482735"
     y2="36.091953" /><linearGradient
     inkscape:collect="always"
     xlink:href="#linearGradient3823"
     id="linearGradient3245"
     gradientUnits="userSpaceOnUse"
     gradientTransform="translate(-5.2873555,-10.558158)"
     x1="39.74715"
     y1="36.091953"
     x2="60.482735"
     y2="36.091953" /><linearGradient
     inkscape:collect="always"
     xlink:href="#linearGradient3823-7"
     id="linearGradient3245-1"
     gradientUnits="userSpaceOnUse"
     gradientTransform="matrix(1.4017253,0,0,1.3169521,-25.373617,-26.405764)"
     x1="39.74715"
     y1="36.091953"
     x2="60.482735"
     y2="36.091953" /><linearGradient
     id="linearGradient3823-7"><stop
       style="stop-color:#315169;stop-opacity:1;"
       offset="0"
       id="stop3825-4" /><stop
       id="stop3833-0"
       offset="0.5"
       style="stop-color:#4a7b9f;stop-opacity:1;" /><stop
       style="stop-color:#315169;stop-opacity:1;"
       offset="1"
       id="stop3827-9" /></linearGradient></defs><sodipodi:namedview
   pagecolor="#ffffff"
   bordercolor="#666666"
   borderopacity="1"
   objecttolerance="10"
   gridtolerance="10"
   guidetolerance="10"
   inkscape:pageopacity="0"
   inkscape:pageshadow="2"
   inkscape:window-width="1920"
   inkscape:window-height="1178"
   id="namedview21"
   showgrid="false"
   width="100px"
   inkscape:zoom="4.35"
   inkscape:cx="14.560215"
   inkscape:cy="85.820923"
   inkscape:window-x="-8"
   inkscape:window-y="-8"
   inkscape:window-maximized="1"
   inkscape:current-layer="Ebene_1" />









<g
   inkscape:groupmode="layer"
   id="layer2"
   inkscape:label="Ebene#1" /><g
   inkscape:groupmode="layer"
   id="layer1"
   inkscape:label="Ebene"
   sodipodi:insensitive="true" /><g
   id="g3234"
   transform="matrix(0.71340657,0,0,0.75932906,18.101705,20.050664)"><path
     inkscape:connector-curvature="0"
     id="rect3757"
     d="m 40.612446,43.980806 8.192388,0 c 0.988287,0 1.783916,0.256988 1.783916,0.576207 l 0,4.57763 c 0,0.319218 -0.795629,0.576207 -1.783916,0.576207 l -8.192388,0 c -0.98829,0 -1.783916,-0.256989 -1.783916,-0.576207 l 0,-4.57763 c 0,-0.319219 0.795626,-0.576207 1.783916,-0.576207 z"
     style="fill:#2b485c;fill-opacity:1;stroke:none" /><path
     inkscape:connector-curvature="0"
     id="rect2987"
     d="m 39.35527,29.044064 10.722762,0 c 0.287376,0 0.518728,0.259118 0.518728,0.580983 l 0,4.568078 c 0,0.321864 -0.231352,0.580983 -0.518728,0.580983 l -10.722762,0 c -0.287375,0 -0.518728,-0.259119 -0.518728,-0.580983 l 0,-4.568078 c 0,-0.321865 0.231353,-0.580983 0.518728,-0.580983 z"
     style="fill:#2b485c;fill-opacity:1;stroke:none" /><path
     style="fill:url(#linearGradient3245-1);fill-opacity:1;fill-rule:nonzero;stroke:none"
     d="m 40.498282,27.692032 8.428725,0 c 0.672694,0 1.21425,0.606548 1.21425,1.359975 l 0,20.779667 c 0,0.753426 -0.541556,1.359975 -1.21425,1.359975 l -8.428725,0 c -0.672694,0 -1.214249,-0.606549 -1.214249,-1.359975 l 0,-20.779667 c 0,-0.753427 0.541555,-1.359975 1.214249,-1.359975 z"
     id="rect2985"
     inkscape:connector-curvature="0" /><path
     sodipodi:nodetypes="sssssssss"
     inkscape:connector-curvature="0"
     id="rect3760"
     d="m 40.519421,34.0659 8.386448,0 c 0.350145,0 0.756411,0.389711 0.632029,0.808308 l -0.897043,3.018925 c -0.124382,0.418596 -0.281885,0.808308 -0.632028,0.808308 l -6.592363,0 c -0.350144,0 -0.507646,-0.389712 -0.632028,-0.808308 L 39.887393,34.874208 C 39.76301,34.455611 40.169277,34.0659 40.519421,34.0659 z"
     style="fill:#bbeef6;fill-opacity:1;stroke:none" /><path
     style="fill:#bbeef6;fill-opacity:1;stroke:none"
     d="m 48.905869,46.362959 -8.386448,0 c -0.350144,0 -0.756411,-0.178618 -0.632028,-0.370474 l 0.897043,-1.383674 c 0.124382,-0.191857 0.281885,-0.370474 0.632028,-0.370474 l 6.592363,0 c 0.350143,0 0.507646,0.178617 0.632028,0.370474 l 0.897043,1.383674 c 0.124382,0.191856 -0.281884,0.370474 -0.632029,0.370474 z"
     id="path3763"
     inkscape:connector-curvature="0"
     sodipodi:nodetypes="sssssssss" /><path
     sodipodi:nodetypes="sssssssss"
     inkscape:connector-curvature="0"
     id="path3765"
     d="m 39.58398,40.42797 0,-4.656968 c 0,-0.217804 0.145559,-0.528699 0.184917,-0.393146 l 0.940596,3.239495 c 0.03936,0.135552 0.184916,0.175343 0.184916,0.393147 l 0,1.464738 c 0,0.217803 -0.06077,0.399385 -0.184916,0.393147 l -0.940596,-0.04727 C 39.644754,40.814913 39.58398,40.64577 39.58398,40.427966 z"
     style="fill:#bbeef6;fill-opacity:1;stroke:none" /><path
     style="fill:#bbeef6;fill-opacity:1;stroke:none"
     d="m 39.596605,41.614093 0,3.54637 c 0,0.217804 0.112622,0.504487 0.184917,0.393146 l 0.66539,-1.024769 c 0.0723,-0.111341 0.162692,-0.177194 0.184917,-0.393147 l 0.257351,-2.500578 c 0.02223,-0.215952 -0.0607,-0.390317 -0.184916,-0.393147 l -0.922742,-0.02102 c -0.12422,-0.0028 -0.184917,0.175344 -0.184917,0.393148 z"
     id="path3767"
     inkscape:connector-curvature="0"
     sodipodi:nodetypes="sssssssss" /><path
     style="fill:#bbeef6;fill-opacity:1;stroke:none"
     d="m 49.84131,40.42797 0,-4.656968 c 0,-0.217804 -0.145558,-0.528699 -0.184916,-0.393146 l -0.940596,3.239495 c -0.03936,0.135552 -0.184916,0.175343 -0.184916,0.393147 l 0,1.464738 c 0,0.217803 0.06077,0.399385 0.184916,0.393147 l 0.940596,-0.04727 c 0.124143,-0.0062 0.184916,-0.175343 0.184916,-0.393147 z"
     id="path3769"
     inkscape:connector-curvature="0"
     sodipodi:nodetypes="sssssssss" /><path
     sodipodi:nodetypes="sssssssss"
     inkscape:connector-curvature="0"
     id="path3771"
     d="m 49.828685,41.614093 0,3.54637 c 0,0.217804 -0.112621,0.504488 -0.184916,0.393146 L 48.978378,44.52884 c -0.07229,-0.111341 -0.162691,-0.177194 -0.184916,-0.393147 L 48.53611,41.635115 c -0.02223,-0.215952 0.0607,-0.390316 0.184917,-0.393147 l 0.922742,-0.02102 c 0.124219,-0.0028 0.184916,0.175344 0.184916,0.393148 z"
     style="fill:#bbeef6;fill-opacity:1;stroke:none" /></g></svg>