<?xml version="1.0" encoding="UTF-8" standalone="no"?>
<!-- Generator: Adobe Illustrator 14.0.0, SVG Export Plug-In . SVG Version: 6.00 Build 43363)  -->

<svg
   xmlns:dc="http://purl.org/dc/elements/1.1/"
   xmlns:cc="http://creativecommons.org/ns#"
   xmlns:rdf="http://www.w3.org/1999/02/22-rdf-syntax-ns#"
   xmlns:svg="http://www.w3.org/2000/svg"
   xmlns="http://www.w3.org/2000/svg"
   xmlns:xlink="http://www.w3.org/1999/xlink"
   xmlns:sodipodi="http://sodipodi.sourceforge.net/DTD/sodipodi-0.dtd"
   xmlns:inkscape="http://www.inkscape.org/namespaces/inkscape"
   version="1.1"
   id="Ebene_1"
   x="0px"
   y="0px"
   width="100"
   height="100"
   viewBox="0 0 100 100"
   enable-background="new 0 0 640 480"
   xml:space="preserve"
   inkscape:version="0.48.0 r9654"
   sodipodi:docname="LKW.svg"><metadata
   id="metadata27"><rdf:RDF><cc:Work
       rdf:about=""><dc:format>image/svg+xml</dc:format><dc:type
         rdf:resource="http://purl.org/dc/dcmitype/StillImage" /></cc:Work></rdf:RDF></metadata><defs
   id="defs25"><linearGradient
     inkscape:collect="always"
     xlink:href="#linearGradient3823"
     id="linearGradient3245"
     gradientUnits="userSpaceOnUse"
     gradientTransform="matrix(1.4017253,0,0,1.3169521,70.047271,-20.315688)"
     x1="39.74715"
     y1="36.091953"
     x2="60.482735"
     y2="36.091953" /><linearGradient
     id="linearGradient3823"><stop
       style="stop-color:#315169;stop-opacity:1;"
       offset="0"
       id="stop3825" /><stop
       id="stop3833"
       offset="0.5"
       style="stop-color:#4a7b9f;stop-opacity:1;" /><stop
       style="stop-color:#315169;stop-opacity:1;"
       offset="1"
       id="stop3827" /></linearGradient></defs><sodipodi:namedview
   pagecolor="#ffffff"
   bordercolor="#666666"
   borderopacity="1"
   objecttolerance="10"
   gridtolerance="10"
   guidetolerance="10"
   inkscape:pageopacity="0"
   inkscape:pageshadow="2"
   inkscape:window-width="1920"
   inkscape:window-height="1178"
   id="namedview23"
   showgrid="false"
   inkscape:zoom="4.35"
   inkscape:cx="0.40523463"
   inkscape:cy="106.02593"
   inkscape:window-x="-8"
   inkscape:window-y="-8"
   inkscape:window-maximized="1"
   inkscape:current-layer="Ebene_1" />










<g
   id="g4549"
   transform="matrix(0.35425378,0,0,0.35425378,32.287311,32.551984)"><path
     id="rect4531"
     d="m 31.559078,11.380016 36.881844,0 c 1.023981,0 1.848341,0.848221 1.848341,1.901841 l 0,12.15429 c 0,1.05362 -0.82436,1.901841 -1.848341,1.901841 l -36.881844,0 c -1.023981,0 -1.848341,-0.848221 -1.848341,-1.901841 l 0,-12.15429 c 0,-1.05362 0.82436,-1.901841 1.848341,-1.901841 z"
     style="fill:#4d4d4d;fill-opacity:1;fill-rule:nonzero;stroke:none"
     inkscape:connector-curvature="0" /><path
     id="rect4017"
     d="m 35.000817,4.7126449 29.998366,0 c 2.047962,0 3.696682,1.6964417 3.696682,3.8036809 l 0,18.1877162 c 0,2.107239 -1.64872,3.803681 -3.696682,3.803681 l -29.998366,0 c -2.047962,0 -3.696682,-1.696442 -3.696682,-3.803681 l 0,-18.1877162 c 0,-2.1072392 1.64872,-3.8036809 3.696682,-3.8036809 z"
     style="fill:#d39d15;fill-opacity:1;fill-rule:nonzero;stroke:none"
     inkscape:connector-curvature="0" /><path
     id="rect4529"
     d="m 44.2319,13.128835 11.5362,0 c 0.511991,0 0.924171,0.424111 0.924171,0.950921 l 0,7.060855 c 0,0.52681 -0.41218,0.950921 -0.924171,0.950921 l -11.5362,0 c -0.511991,0 -0.924171,-0.424111 -0.924171,-0.950921 l 0,-7.060855 c 0,-0.52681 0.41218,-0.950921 0.924171,-0.950921 z"
     style="fill:#f5db9b;fill-opacity:1;fill-rule:nonzero;stroke:none"
     inkscape:connector-curvature="0" /><path
     id="rect4533"
     d="m 29.434548,29.086806 41.130904,0 c 1.023982,0 1.848342,0.848221 1.848342,1.901841 l 0,60.902613 c 0,1.053619 -0.82436,1.90184 -1.848342,1.90184 l -41.130904,0 c -1.023981,0 -1.848342,-0.848221 -1.848342,-1.90184 l 0,-60.902613 c 0,-1.05362 0.824361,-1.901841 1.848342,-1.901841 z"
     style="fill:#184b68;fill-opacity:1;fill-rule:nonzero;stroke:none"
     inkscape:connector-curvature="0" /></g></svg>