<?xml version="1.0" encoding="UTF-8" standalone="no"?>
<!-- Created with Inkscape (http://www.inkscape.org/) -->

<svg
   xmlns:dc="http://purl.org/dc/elements/1.1/"
   xmlns:cc="http://creativecommons.org/ns#"
   xmlns:rdf="http://www.w3.org/1999/02/22-rdf-syntax-ns#"
   xmlns:svg="http://www.w3.org/2000/svg"
   xmlns="http://www.w3.org/2000/svg"
   xmlns:sodipodi="http://sodipodi.sourceforge.net/DTD/sodipodi-0.dtd"
   xmlns:inkscape="http://www.inkscape.org/namespaces/inkscape"
   width="100"
   height="100"
   id="svg3030"
   version="1.1"
   inkscape:version="0.48.0 r9654"
   sodipodi:docname="Moped.svg">
  <defs
     id="defs3032" />
  <sodipodi:namedview
     id="base"
     pagecolor="#ffffff"
     bordercolor="#666666"
     borderopacity="1.0"
     inkscape:pageopacity="0.0"
     inkscape:pageshadow="2"
     inkscape:zoom="5.6"
     inkscape:cx="0.031326286"
     inkscape:cy="24.819734"
     inkscape:document-units="px"
     inkscape:current-layer="layer1"
     showgrid="false"
     inkscape:window-width="1920"
     inkscape:window-height="1178"
     inkscape:window-x="-8"
     inkscape:window-y="-8"
     inkscape:window-maximized="1" />
  <metadata
     id="metadata3035">
    <rdf:RDF>
      <cc:Work
         rdf:about="">
        <dc:format>image/svg+xml</dc:format>
        <dc:type
           rdf:resource="http://purl.org/dc/dcmitype/StillImage" />
        <dc:title />
      </cc:Work>
    </rdf:RDF>
  </metadata>
  <g
     inkscape:label="Ebene 1"
     inkscape:groupmode="layer"
     id="layer1"
     transform="translate(0,-952.36217)">
    <g
       id="g3108"
       transform="matrix(0.26725387,0,0,0.26725387,36.637306,734.477)">
      <path
         id="rect4567"
         d="m 49.999999,981.55862 c 0.791428,0 1.428571,0.892 1.428571,2 l 0,9.75 c 0,1.108 -0.637143,2 -1.428571,2 -0.791429,0 -1.428572,-0.892 -1.428572,-2 l 0,-9.75 c 0,-1.108 0.637143,-2 1.428572,-2 z"
         style="fill:#000000;fill-opacity:1;fill-rule:nonzero;stroke:none"
         inkscape:connector-curvature="0" />
      <path
         id="rect4569"
         d="m 49.05357,986.20144 1.892858,0 c 1.108,0 2,0.892 2,2 l 0,6.71429 c 0,1.108 -0.892,2 -2,2 l -1.892858,0 c -1.107999,0 -1.999999,-0.892 -1.999999,-2 l 0,-6.71429 c 0,-1.108 0.892,-2 1.999999,-2 z"
         style="fill:#d30000;fill-opacity:1;fill-rule:nonzero;stroke:none"
         inkscape:connector-curvature="0" />
      <path
         id="rect4571"
         d="m 49.999999,1023.1657 c -0.791428,0 -1.428571,-0.892 -1.428571,-2 l 0,-9.75 c 0,-1.108 0.637143,-2 1.428571,-2 0.791429,0 1.428572,0.892 1.428572,2 l 0,9.75 c 0,1.108 -0.637143,2 -1.428572,2 z"
         style="fill:#000000;fill-opacity:1;fill-rule:nonzero;stroke:none"
         inkscape:connector-curvature="0" />
      <path
         id="rect4573"
         d="m 50.946427,1018.5229 -1.892857,0 c -1.108,0 -2,-0.892 -2,-2 l 0,-6.7143 c 0,-1.108 0.892,-2 2,-2 l 1.892857,0 c 1.108,0 2,0.892 2,2 l 0,6.7143 c 0,1.108 -0.892,2 -2,2 z"
         style="fill:#d30000;fill-opacity:1;fill-rule:nonzero;stroke:none"
         inkscape:connector-curvature="0" />
      <path
         inkscape:connector-curvature="0"
         id="rect4575"
         d="m 46.22188,989.2372 7.55624,0 c 1.8146,0 3.275452,2.40522 3.275452,5.39286 l 0,13.67854 c 0,2.9877 -1.460852,5.3929 -3.275452,5.3929 l -7.55624,0 c -1.8146,0 -3.275452,-2.4052 -3.275452,-5.3929 l 0,-13.67854 c 0,-2.98764 1.460852,-5.39286 3.275452,-5.39286 z"
         style="fill:#504416;fill-opacity:1;fill-rule:nonzero;stroke:none" />
      <path
         id="path4578"
         d="m 55.714286,998.70149 c 0,2.86001 -2.558373,5.17861 -5.714286,5.17861 -3.155913,0 -5.714285,-2.3186 -5.714285,-5.17861 0,-2.86005 2.558372,-5.17857 5.714285,-5.17857 3.155913,0 5.714286,2.31852 5.714286,5.17857 z"
         style="fill:#e8cc00;fill-opacity:1;fill-rule:nonzero;stroke:none"
         inkscape:connector-curvature="0" />
      <path
         id="path4580"
         d="m 54.464286,996.50506 c 0,1.13416 -1.998729,2.05357 -4.464286,2.05357 -2.465557,0 -4.464285,-0.91941 -4.464285,-2.05357 0,-1.13415 1.998728,-2.05357 4.464285,-2.05357 2.465557,0 4.464286,0.91942 4.464286,2.05357 z"
         style="fill:#c0fff3;fill-opacity:1;fill-rule:nonzero;stroke:none"
         inkscape:connector-curvature="0" />
    </g>
  </g>
</svg>
