<?xml version="1.0" encoding="utf-8"?>
<!-- Generator: Adobe Illustrator 14.0.0, SVG Export Plug-In . SVG Version: 6.00 Build 43363)  -->
<!DOCTYPE svg PUBLIC "-//W3C//DTD SVG 1.1//EN" "http://www.w3.org/Graphics/SVG/1.1/DTD/svg11.dtd">
<svg version="1.1" id="Ebene_1" xmlns="http://www.w3.org/2000/svg" xmlns:xlink="http://www.w3.org/1999/xlink" x="0px" y="0px"
	 width="595.28px" height="841.89px" viewBox="0 0 595.28 841.89" enable-background="new 0 0 595.28 841.89" xml:space="preserve">
<rect x="164.41" y="119.436" fill="#FFFFFF" stroke="#000000" width="241.024" height="241.025"/>
<line fill="none" stroke="#000000" x1="283.923" y1="345.718" x2="283.923" y2="375.205"/>
<line fill="none" stroke="#000000" x1="284.923" y1="104.692" x2="284.923" y2="134.18"/>
<line fill="none" stroke="#000000" x1="419.537" y1="239.821" x2="390.051" y2="239.821"/>
<line fill="none" stroke="#000000" x1="179.153" y1="239.821" x2="149.667" y2="239.821"/>
<g>
	<line fill="none" stroke="#000000" x1="164.41" y1="63.667" x2="405.436" y2="63.667"/>
	<line fill="none" stroke="#000000" x1="163.128" y1="50.077" x2="163.128" y2="79.564"/>
	<line fill="none" stroke="#000000" x1="405.436" y1="49.949" x2="405.436" y2="79.436"/>
</g>
<rect x="265.308" y="44.897" fill="none" width="85.897" height="12.821"/>
<text transform="matrix(1 0 0 1 265.3074 56.9663)" font-family="'MyriadPro-Regular'" font-size="17">100 %</text>
<rect x="270.436" y="85.436" fill="none" width="37.82" height="12.82"/>
<text transform="matrix(1 0 0 1 270.4358 97.5054)" font-family="'MyriadPro-Regular'" font-size="17">50 %</text>
<g>
	<line fill="none" stroke="#000000" x1="460.282" y1="120.077" x2="460.282" y2="361.103"/>
	<line fill="none" stroke="#000000" x1="473.872" y1="118.795" x2="444.385" y2="118.795"/>
	<line fill="none" stroke="#000000" x1="474" y1="361.103" x2="444.513" y2="361.103"/>
</g>
<rect x="469.231" y="220.974" fill="none" width="12.82" height="85.898"/>
<text transform="matrix(-4.371139e-08 1 -1 -4.371139e-08 469.9797 220.9741)" font-family="'MyriadPro-Regular'" font-size="17">100 %</text>
<text transform="matrix(-1.346898e-10 1 -1 -1.346898e-10 428.5129 228.4102)" font-family="'MyriadPro-Regular'" font-size="17">50 %</text>
<g id="layer1" transform="translate(0,-952.36218)" inkscape:groupmode="layer" inkscape:label="Ebene 1">
	<line id="rect2985-2_4_" fill="none" stroke="#333333" x1="164.41" y1="1155.291" x2="405.436" y2="1155.291"/>
	<line id="rect2985-2_3_" fill="none" stroke="#333333" x1="248.545" y1="1227.407" x2="164.41" y2="1227.407"/>
	<line id="rect2985_3_" fill="none" stroke="#333333" x1="248.545" y1="1311.541" x2="248.545" y2="1227.407"/>
	<line id="rect2985_2_" fill="none" stroke="#333333" x1="320.659" y1="1227.407" x2="320.659" y2="1311.541"/>
	
		<path id="path3773-6_2_" sodipodi:nodetypes="cc" inkscape:connector-curvature="0" fill="#F9F9F9" stroke="#F9F9F9" stroke-dasharray="8,8" d="
		M164.41,1191.349"/>
	
		<path id="path3773-6_1_" sodipodi:nodetypes="cc" inkscape:connector-curvature="0" fill="#F9F9F9" stroke="#F9F9F9" stroke-dasharray="8,8" d="
		M404.794,1191.349"/>
	<path id="path3773-0_2_" sodipodi:nodetypes="cc" inkscape:connector-curvature="0" fill="#F9F9F9" stroke="#F9F9F9" d="
		M284.602,1311.541"/>
	<path id="path3773-0_1_" sodipodi:nodetypes="cc" inkscape:connector-curvature="0" fill="#F9F9F9" stroke="#F9F9F9" d="
		M284.602,1251.445"/>
</g>
<line id="rect2985-2_2_" fill="none" stroke="#333333" x1="404.793" y1="275.044" x2="320.659" y2="275.044"/>
</svg>
