<?xml version="1.0" encoding="utf-8"?>
<!-- Generator: Adobe Illustrator 15.0.0, SVG Export Plug-In . SVG Version: 6.00 Build 0)  -->
<!DOCTYPE svg PUBLIC "-//W3C//DTD SVG 1.1//EN" "http://www.w3.org/Graphics/SVG/1.1/DTD/svg11.dtd">
<svg version="1.1" id="Layer_1" xmlns="http://www.w3.org/2000/svg" xmlns:xlink="http://www.w3.org/1999/xlink" x="0px" y="0px"
	 width="675.025px" height="601px" viewBox="0 0 675.025 601" enable-background="new 0 0 675.025 601" xml:space="preserve">
<rect x="10.166" y="29.224" fill="#F0F0F0" stroke="#000000" stroke-miterlimit="10" width="654.512" height="552.222"/>
<rect x="10.166" y="15.688" fill="#F0F0F0" stroke="#000000" stroke-miterlimit="10" width="102.185" height="13.376"/>
<rect x="22.328" y="62.5" fill="#FFFFFF" stroke="#000000" stroke-miterlimit="10" width="195.676" height="39.521"/>
<rect x="16.798" y="35.857" fill="none" width="129.346" height="19.898"/>
<text transform="matrix(1 0 0 1 16.7988 44.3345)" font-family="'MyriadPro-Regular'" font-size="11.9395">data</text>
<rect x="270.188" y="59.264" fill="#E1E1E1" stroke="#000000" stroke-miterlimit="10" width="351.793" height="256.004"/>
<rect x="405.27" y="90.571" fill="#D2D2D2" stroke="#000000" stroke-miterlimit="10" width="202.195" height="207.176"/>
<rect x="279.997" y="90.661" fill="#FFFFFF" stroke="#000000" stroke-miterlimit="10" width="114.751" height="43.805"/>
<rect x="423.646" y="118.721" fill="#FFFFFF" stroke="#000000" stroke-miterlimit="10" width="169.143" height="24.211"/>
<rect x="422.236" y="157.855" fill="#FFFFFF" stroke="#000000" stroke-miterlimit="10" width="117.684" height="24.21"/>
<rect x="422.236" y="213.008" fill="#FFFFFF" stroke="#000000" stroke-miterlimit="10" width="161.268" height="65.75"/>
<line fill="none" stroke="#000000" stroke-miterlimit="10" x1="475.248" y1="213.147" x2="475.248" y2="182.066"/>
<rect x="24.657" y="134.466" fill="#E1E1E1" stroke="#000000" stroke-miterlimit="10" width="192.375" height="133.962"/>
<rect x="63.724" y="160.087" fill="#FFFFFF" stroke="#000000" stroke-miterlimit="10" width="117.683" height="24.21"/>
<g>
	<g>
		<line fill="none" stroke="#000000" stroke-miterlimit="10" x1="119.727" y1="224.872" x2="119.727" y2="191.412"/>
		<g>
			<polygon points="124.685,192.871 119.699,184.235 114.713,192.871 			"/>
		</g>
	</g>
</g>
<g>
	<g>
		<line fill="none" stroke="#000000" stroke-miterlimit="10" x1="97.913" y1="423.948" x2="97.913" y2="396.579"/>
		<g>
			<polygon points="102.871,398.038 97.886,389.403 92.899,398.038 			"/>
		</g>
	</g>
</g>
<rect x="25.502" y="339.323" fill="#E1E1E1" stroke="#000000" stroke-miterlimit="10" width="624.15" height="221.764"/>
<rect x="41.202" y="365.856" fill="#FFFFFF" stroke="#000000" stroke-miterlimit="10" width="139.977" height="23.547"/>
<rect x="33.242" y="343.303" fill="none" width="129.344" height="19.9"/>
<text transform="matrix(1 0 0 1 33.2417 351.7798)" font-family="'MyriadPro-Regular'" font-size="11.9395">data.dataobject</text>
<rect x="432.611" y="522.782" fill="#FFFFFF" stroke="#000000" stroke-miterlimit="10" width="88.219" height="27.967"/>
<rect x="252.655" y="475.241" fill="#FFFFFF" stroke="#000000" stroke-miterlimit="10" width="112.611" height="27.969"/>
<g>
	<g>
		<line fill="none" stroke="#000000" stroke-miterlimit="10" x1="372.85" y1="490.854" x2="433.963" y2="490.854"/>
		<g>
			<polygon points="374.309,495.812 365.674,490.827 374.309,485.84 			"/>
		</g>
	</g>
</g>
<rect x="433.963" y="476.872" fill="#FFFFFF" stroke="#000000" stroke-miterlimit="10" width="110.721" height="27.967"/>
<rect x="411.354" y="415.272" fill="#FFFFFF" stroke="#000000" stroke-miterlimit="10" width="72.193" height="27.967"/>
<rect x="254.031" y="415.272" fill="#FFFFFF" stroke="#000000" stroke-miterlimit="10" width="112.61" height="27.967"/>
<g>
	<g>
		<line fill="none" stroke="#000000" stroke-miterlimit="10" x1="491.525" y1="429.256" x2="526.203" y2="429.256"/>
		<g>
			<polygon points="492.984,434.214 484.35,429.229 492.984,424.243 			"/>
		</g>
	</g>
</g>
<g>
	<g>
		<line fill="none" stroke="#000000" stroke-miterlimit="10" x1="374.082" y1="429.256" x2="411.354" y2="429.256"/>
		<g>
			<polygon points="375.541,434.214 366.906,429.229 375.541,424.243 			"/>
		</g>
	</g>
</g>
<rect x="526.105" y="415.272" fill="#FFFFFF" stroke="#000000" stroke-miterlimit="10" width="110.721" height="27.967"/>
<rect x="455.131" y="362.872" fill="#FFFFFF" stroke="#000000" stroke-miterlimit="10" width="144.389" height="27.967"/>
<rect x="254.03" y="362.872" fill="#FFFFFF" stroke="#000000" stroke-miterlimit="10" width="144.388" height="27.967"/>
<rect x="40.277" y="423.948" fill="#FFFFFF" stroke="#000000" stroke-miterlimit="10" width="144.389" height="112.818"/>
<g>
	<g>
		<line fill="none" stroke="#000000" stroke-miterlimit="10" x1="103.529" y1="423.948" x2="103.529" y2="396.579"/>
		<g>
			<polygon points="108.487,398.038 103.502,389.403 98.516,398.038 			"/>
		</g>
	</g>
</g>
<g>
	<g>
		<line fill="none" stroke="#000000" stroke-miterlimit="10" x1="405.594" y1="376.854" x2="455.131" y2="376.854"/>
		<g>
			<polygon points="407.053,381.812 398.418,376.827 407.053,371.84 			"/>
		</g>
	</g>
</g>
<g>
	<g>
		<line fill="none" stroke="#000000" stroke-miterlimit="10" x1="188.354" y1="376.854" x2="254.03" y2="376.854"/>
		<g>
			<polygon points="189.813,381.812 181.178,376.827 189.813,371.84 			"/>
		</g>
	</g>
</g>
<rect x="270.188" y="45.806" fill="#E1E1E1" stroke="#000000" stroke-miterlimit="10" width="102.186" height="13.376"/>
<rect x="25.711" y="325.947" fill="#E1E1E1" stroke="#000000" stroke-miterlimit="10" width="102.185" height="13.375"/>
<polyline fill="none" stroke="#000000" stroke-miterlimit="10" points="254.03,429.256 218.975,429.256 218.975,376.854 "/>
<polyline fill="none" stroke="#000000" stroke-miterlimit="10" points="218.975,429.256 218.975,489.225 252.655,489.225 "/>
<rect x="55.054" y="224.657" fill="#FFFFFF" stroke="#000000" stroke-miterlimit="10" width="138.962" height="29.31"/>
<rect x="22.328" y="75.38" fill="none" width="195.677" height="22.662"/>
<text transform="matrix(1 0 0 1 79.9224 86.6826)" font-family="'MyriadPro-Regular'" font-size="15.9194">DataFactory</text>
<rect x="29.963" y="140.188" fill="none" width="129.344" height="19.899"/>
<text transform="matrix(1 0 0 1 29.9629 148.6655)" font-family="'MyriadPro-Regular'" font-size="11.9395">data.datamanager</text>
<rect x="21.356" y="166.333" fill="none" width="195.676" height="22.662"/>
<text transform="matrix(1 0 0 1 89.6636 177.6357)" font-family="'MyriadPro-Regular'" font-size="15.9194">Manager</text>
<rect x="24.384" y="120.838" fill="#E1E1E1" stroke="#000000" stroke-miterlimit="10" width="102.186" height="13.376"/>
<rect x="75.476" y="232.099" fill="none" width="143.499" height="16.431"/>
<text transform="matrix(1 0 0 1 75.4771 243.4014)" font-family="'MyriadPro-Regular'" font-size="15.9194">WorldManager</text>
<rect x="280.573" y="65.456" fill="none" width="129.345" height="19.899"/>
<text transform="matrix(1 0 0 1 280.5728 73.9331)" font-family="'MyriadPro-Regular'" font-size="11.9395">data.datasource</text>
<rect x="410.576" y="96.929" fill="none" width="129.344" height="19.899"/>
<text transform="matrix(1 0 0 1 410.5762 105.4058)" font-family="'MyriadPro-Regular'" font-size="11.9395">data.datasource.xml</text>
<rect x="239.74" y="98.233" fill="none" width="195.674" height="36.233"/>
<text transform="matrix(1 0 0 1 289.3823 109.5371)"><tspan x="0" y="0" font-family="'MyriadPro-Regular'" font-size="15.9194">&lt;&lt;interface&gt;&gt; </tspan><tspan x="9.75" y="19.103" font-family="'MyriadPro-Regular'" font-size="15.9194">DataSource</tspan></text>
<rect x="411.789" y="124.968" fill="none" width="195.676" height="22.662"/>
<text transform="matrix(1 0 0 1 456.4824 136.2705)" font-family="'MyriadPro-Regular'" font-size="15.9194">XMLDataSource</text>
<rect x="379.869" y="164.102" fill="none" width="195.674" height="22.662"/>
<text transform="matrix(1 0 0 1 440.168 175.4043)" font-family="'MyriadPro-Regular'" font-size="15.9194">XMLSource</text>
<rect x="432.049" y="219.254" fill="none" width="143.494" height="59.504"/>
<text transform="matrix(1 0 0 1 432.0488 230.5571)"><tspan x="0" y="0" font-family="'MyriadPro-Regular'" font-size="15.9194">WorldXMLSource</tspan><tspan x="0" y="19.103" font-family="'MyriadPro-Regular'" font-size="15.9194">LanguageXMLSource</tspan><tspan x="0" y="38.207" font-family="'MyriadPro-Regular'" font-size="15.9194">TileXMLSource</tspan></text>
<rect x="405.365" y="77.369" fill="#D2D2D2" stroke="#000000" stroke-miterlimit="10" width="102.186" height="13.376"/>
<rect x="72.506" y="370.61" fill="none" width="77.386" height="18.793"/>
<text transform="matrix(1 0 0 1 72.5063 381.9126)" font-family="'MyriadPro-Regular'" font-size="15.9194">DataObject</text>
<rect x="442.137" y="530.022" fill="none" width="71.789" height="16.748"/>
<text transform="matrix(1 0 0 1 442.1367 541.3228)" font-family="'MyriadPro-Regular'" font-size="15.9194">CurveData</text>
<rect x="268.812" y="482.481" fill="none" width="127.633" height="16.748"/>
<text transform="matrix(1 0 0 1 268.8125 493.7837)" font-family="'MyriadPro-Regular'" font-size="15.9194">RouteData</text>
<rect x="444.814" y="484.11" fill="none" width="127.631" height="16.75"/>
<text transform="matrix(1 0 0 1 444.8145 495.4126)" font-family="'MyriadPro-Regular'" font-size="15.9194">StraightData</text>
<rect x="420.879" y="422.512" fill="none" width="57.418" height="16.748"/>
<text transform="matrix(1 0 0 1 420.8789 433.8149)" font-family="'MyriadPro-Regular'" font-size="15.9194">TileData</text>
<rect x="270.188" y="422.512" fill="none" width="127.632" height="16.748"/>
<text transform="matrix(1 0 0 1 270.188 433.8149)" font-family="'MyriadPro-Regular'" font-size="15.9194">BaseTileData</text>
<rect x="535.631" y="422.512" fill="none" width="127.631" height="16.748"/>
<text transform="matrix(1 0 0 1 535.6309 433.8149)" font-family="'MyriadPro-Regular'" font-size="15.9194">PlacedTileData</text>
<rect x="464.656" y="370.11" fill="none" width="127.633" height="16.75"/>
<text transform="matrix(1 0 0 1 464.6562 381.4126)" font-family="'MyriadPro-Regular'" font-size="15.9194">PlacedVehicleData</text>
<rect x="282.127" y="370.11" fill="none" width="127.632" height="16.75"/>
<text transform="matrix(1 0 0 1 282.127 381.4126)" font-family="'MyriadPro-Regular'" font-size="15.9194">VehicleData</text>
<rect x="49.802" y="435.167" fill="none" width="127.633" height="96.072"/>
<text transform="matrix(1 0 0 1 49.8027 446.4692)"><tspan x="0" y="0" font-family="'MyriadPro-Regular'" font-size="15.9194">WorldData</tspan><tspan x="0" y="19.104" font-family="'MyriadPro-Regular'" font-size="15.9194">VehicleSpeedData</tspan><tspan x="0" y="38.207" font-family="'MyriadPro-Regular'" font-size="15.9194">TextData</tspan><tspan x="0" y="57.311" font-family="'MyriadPro-Regular'" font-size="15.9194">TraffixLightData</tspan><tspan x="0" y="76.414" font-family="'MyriadPro-Regular'" font-size="15.9194">LocationData</tspan></text>
<polyline fill="none" stroke="#000000" stroke-miterlimit="10" points="409.76,490.551 409.76,538.092 432.049,538.092 "/>
<polygon fill="#FFFFFF" stroke="#000000" stroke-miterlimit="10" points="475.377,182.223 469.854,191.304 480.643,191.304 "/>
<polygon fill="#FFFFFF" stroke="#000000" stroke-miterlimit="10" points="119.855,184.455 114.332,193.536 125.121,193.536 "/>
<polygon fill="#FFFFFF" stroke="#000000" stroke-miterlimit="10" points="103.658,389.403 98.135,398.484 108.924,398.484 "/>
<polygon fill="#FFFFFF" stroke="#000000" stroke-miterlimit="10" points="181.178,376.725 190.259,382.249 190.259,371.459 "/>
<polygon fill="#FFFFFF" stroke="#000000" stroke-miterlimit="10" points="397.82,376.725 406.902,382.249 406.902,371.459 "/>
<polygon fill="#FFFFFF" stroke="#000000" stroke-miterlimit="10" points="367.594,429.126 376.676,434.65 376.676,423.861 "/>
<polygon fill="#FFFFFF" stroke="#000000" stroke-miterlimit="10" points="483.547,429.126 492.629,434.65 492.629,423.861 "/>
<polygon fill="#FFFFFF" stroke="#000000" stroke-miterlimit="10" points="365.674,490.725 374.756,496.249 374.756,485.459 "/>
</svg>
