<?xml version="1.0" encoding="utf-8"?>
<!-- Generator: Adobe Illustrator 15.0.0, SVG Export Plug-In . SVG Version: 6.00 Build 0)  -->
<!DOCTYPE svg PUBLIC "-//W3C//DTD SVG 1.1//EN" "http://www.w3.org/Graphics/SVG/1.1/DTD/svg11.dtd">
<svg version="1.1" id="Layer_1" xmlns="http://www.w3.org/2000/svg" xmlns:xlink="http://www.w3.org/1999/xlink" x="0px" y="0px"
	 width="500px" height="250px" viewBox="0 0 500 250" enable-background="new 0 0 500 250" xml:space="preserve">
<rect x="15.169" y="22.675" fill="#F0F0F0" stroke="#000000" stroke-miterlimit="10" width="457.136" height="207.407"/>
<rect x="15.169" y="11.247" fill="#F0F0F0" stroke="#000000" stroke-miterlimit="10" width="87.3" height="11.428"/>
<g>
	<g>
		<line fill="none" stroke="#000000" stroke-miterlimit="10" x1="394.956" y1="191.029" x2="394.956" y2="165.525"/>
		<g>
			<polygon points="399.914,166.984 394.929,158.35 389.942,166.984 			"/>
		</g>
	</g>
</g>
<g>
	<g>
		<line fill="none" stroke="#000000" stroke-miterlimit="10" x1="342.926" y1="135.777" x2="342.926" y2="119.103"/>
		<g>
			<polygon points="347.884,120.562 342.898,111.926 337.912,120.562 			"/>
		</g>
	</g>
</g>
<g>
	<g>
		<line fill="none" stroke="#000000" stroke-miterlimit="10" x1="262.645" y1="135.777" x2="262.645" y2="119.103"/>
		<g>
			<polygon points="267.603,120.562 262.617,111.926 257.631,120.562 			"/>
		</g>
	</g>
</g>
<rect x="333.648" y="191.029" fill="#FFFFFF" stroke="#000000" stroke-miterlimit="10" width="122.615" height="22.572"/>
<rect x="333.648" y="135.777" fill="#FFFFFF" stroke="#000000" stroke-miterlimit="10" width="122.615" height="22.572"/>
<rect x="231.833" y="89.354" fill="#FFFFFF" stroke="#000000" stroke-miterlimit="10" width="132.438" height="22.572"/>
<rect x="183.394" y="135.777" fill="#FFFFFF" stroke="#000000" stroke-miterlimit="10" width="126.558" height="63.799"/>
<rect x="30.282" y="49.83" fill="#FFFFFF" stroke="#000000" stroke-miterlimit="10" width="132.439" height="25.972"/>
<rect x="33.682" y="119.106" fill="#FFFFFF" stroke="#000000" stroke-miterlimit="10" width="126.557" height="98.604"/>
<g>
	<line fill="#FFFFFF" x1="94.694" y1="119.106" x2="94.694" y2="75.935"/>
	<g>
		<line fill="none" stroke="#000000" stroke-miterlimit="10" x1="94.694" y1="119.106" x2="94.694" y2="83.111"/>
		<g>
			<polygon points="99.652,84.57 94.667,75.935 89.68,84.57 			"/>
		</g>
	</g>
</g>
<rect x="20.836" y="28.342" fill="none" width="110.504" height="17"/>
<text transform="matrix(1 0 0 1 20.8364 35.5835)" font-family="'MyriadPro-Regular'" font-size="10.2004">view</text>
<rect x="313.06" y="196.506" fill="none" width="167.173" height="19.362"/>
<text transform="matrix(1 0 0 1 343.8496 206.1621)" font-family="'MyriadPro-Regular'" font-size="13.6005">SaveDialogueView</text>
<rect x="313.06" y="141.254" fill="none" width="167.173" height="19.362"/>
<text transform="matrix(1 0 0 1 343.1016 150.9111)" font-family="'MyriadPro-Regular'" font-size="13.6005">LoadDialogueView</text>
<rect x="215.777" y="94.831" fill="none" width="167.173" height="19.361"/>
<text transform="matrix(1 0 0 1 267.0293 104.4878)" font-family="'MyriadPro-Regular'" font-size="13.6005">DialogView</text>
<rect x="14.227" y="57.573" fill="none" width="167.173" height="19.361"/>
<text transform="matrix(1 0 0 1 84.0156 67.23)" font-family="'MyriadPro-Regular'" font-size="13.6005">View</text>
<rect x="191.894" y="146.781" fill="none" width="118.057" height="52.795"/>
<text transform="matrix(1 0 0 1 191.8936 156.4375)"><tspan x="0" y="0" font-family="'MyriadPro-Regular'" font-size="13.6005">NewDialogueView</tspan><tspan x="0" y="16.32" font-family="'MyriadPro-Regular'" font-size="13.6005">ErrorDialogueView</tspan><tspan x="0" y="32.642" font-family="'MyriadPro-Regular'" font-size="13.6005">HelpDialogueView</tspan></text>
<rect x="42.182" y="130.108" fill="none" width="118.058" height="92.561"/>
<text transform="matrix(1 0 0 1 42.1816 139.7656)"><tspan x="0" y="0" font-family="'MyriadPro-Regular'" font-size="13.6005">AppView</tspan><tspan x="0" y="16.32" font-family="'MyriadPro-Regular'" font-size="13.6005">MenuView</tspan><tspan x="0" y="32.642" font-family="'MyriadPro-Regular'" font-size="13.6005">ToolBarView</tspan><tspan x="0" y="48.962" font-family="'MyriadPro-Regular'" font-size="13.6005">WorldView</tspan><tspan x="0" y="65.282" font-family="'MyriadPro-Regular'" font-size="13.6005">WorldTileView</tspan></text>
<g>
	<g>
		<line fill="none" stroke="#000000" stroke-miterlimit="10" x1="169.897" y1="62.816" x2="299.364" y2="62.816"/>
		<g>
			<polygon points="171.356,67.774 162.721,62.789 171.356,57.802 			"/>
		</g>
	</g>
</g>
<line fill="none" stroke="#000000" stroke-miterlimit="10" x1="299.364" y1="62.816" x2="299.364" y2="89.354"/>
<polygon fill="#FFFFFF" stroke="#000000" stroke-miterlimit="10" points="94.823,75.802 89.299,84.883 100.088,84.883 "/>
<polygon fill="#FFFFFF" stroke="#000000" stroke-miterlimit="10" points="262.773,111.926 257.25,121.007 268.039,121.007 "/>
<polygon fill="#FFFFFF" stroke="#000000" stroke-miterlimit="10" points="343.055,111.927 337.531,121.008 348.32,121.008 "/>
<polygon fill="#FFFFFF" stroke="#000000" stroke-miterlimit="10" points="395.086,158.35 389.562,167.431 400.352,167.431 "/>
<polygon fill="#FFFFFF" stroke="#000000" stroke-miterlimit="10" points="162.721,62.687 171.802,68.21 171.802,57.421 "/>
</svg>
