<?xml version="1.0" encoding="utf-8"?>
<!-- Generator: Adobe Illustrator 15.0.0, SVG Export Plug-In . SVG Version: 6.00 Build 0)  -->
<!DOCTYPE svg PUBLIC "-//W3C//DTD SVG 1.1//EN" "http://www.w3.org/Graphics/SVG/1.1/DTD/svg11.dtd">
<svg version="1.1" id="Layer_1" xmlns="http://www.w3.org/2000/svg" xmlns:xlink="http://www.w3.org/1999/xlink" x="0px" y="0px"
	 width="600px" height="600px" viewBox="0 0 600 600" enable-background="new 0 0 600 600" xml:space="preserve">
<rect x="22.827" y="29.685" fill="#F0F0F0" stroke="#000000" stroke-miterlimit="10" width="555.991" height="550.973"/>
<rect x="22.827" y="19.602" fill="#F0F0F0" stroke="#000000" stroke-miterlimit="10" width="77.026" height="10.083"/>
<rect x="387.161" y="125.209" fill="#E1E1E1" stroke="#000000" stroke-miterlimit="10" width="147.5" height="64.748"/>
<rect x="47.826" y="113.988" fill="#E1E1E1" stroke="#000000" stroke-miterlimit="10" width="272.576" height="161.472"/>
<rect x="47.161" y="302.332" fill="#E1E1E1" stroke="#000000" stroke-miterlimit="10" width="519.324" height="264.154"/>
<rect x="47.826" y="103.905" fill="#E1E1E1" stroke="#000000" stroke-miterlimit="10" width="77.026" height="10.083"/>
<rect x="387.161" y="115.126" fill="#E1E1E1" stroke="#000000" stroke-miterlimit="10" width="77.026" height="10.083"/>
<rect x="46.161" y="292.248" fill="#E1E1E1" stroke="#000000" stroke-miterlimit="10" width="77.026" height="10.084"/>
<g>
	<g>
		<line fill="none" stroke="#000000" stroke-miterlimit="10" x1="485.436" y1="467.449" x2="485.436" y2="452.021"/>
		<g>
			<polygon points="490.394,453.48 485.408,444.846 480.422,453.48 			"/>
		</g>
	</g>
</g>
<g>
	<g>
		<line fill="none" stroke="#000000" stroke-miterlimit="10" x1="359.344" y1="523.687" x2="359.344" y2="509.043"/>
		<g>
			<polygon points="364.302,510.502 359.316,501.867 354.33,510.502 			"/>
		</g>
	</g>
</g>
<g>
	<g>
		<line fill="none" stroke="#000000" stroke-miterlimit="10" x1="359.344" y1="478.658" x2="359.344" y2="462.021"/>
		<g>
			<polygon points="364.302,463.48 359.316,454.846 354.33,463.48 			"/>
		</g>
	</g>
</g>
<g>
	<g>
		<line fill="none" stroke="#000000" stroke-miterlimit="10" x1="223.941" y1="509.057" x2="223.941" y2="489.689"/>
		<g>
			<polygon points="228.899,491.148 223.914,482.513 218.928,491.148 			"/>
		</g>
	</g>
</g>
<g>
	<g>
		<line fill="none" stroke="#000000" stroke-miterlimit="10" x1="222.523" y1="461.284" x2="222.523" y2="443.496"/>
		<g>
			<polygon points="227.481,444.955 222.496,436.319 217.51,444.955 			"/>
		</g>
	</g>
</g>
<g>
	<g>
		<line fill="none" stroke="#000000" stroke-miterlimit="10" x1="116.815" y1="502.639" x2="116.815" y2="480.996"/>
		<g>
			<polygon points="121.773,482.455 116.788,473.819 111.802,482.455 			"/>
		</g>
	</g>
</g>
<g>
	<g>
		<line fill="none" stroke="#000000" stroke-miterlimit="10" x1="135.485" y1="451.401" x2="135.485" y2="391.795"/>
		<g>
			<polygon points="140.443,393.254 135.458,384.619 130.472,393.254 			"/>
		</g>
	</g>
</g>
<rect x="447.222" y="513.687" fill="#FFFFFF" stroke="#000000" stroke-miterlimit="10" width="90.771" height="36.97"/>
<rect x="429.222" y="467.449" fill="#FFFFFF" stroke="#000000" stroke-miterlimit="10" width="126.771" height="22.418"/>
<rect x="431.222" y="422.428" fill="#FFFFFF" stroke="#000000" stroke-miterlimit="10" width="108.427" height="22.418"/>
<rect x="311.826" y="523.687" fill="#FFFFFF" stroke="#000000" stroke-miterlimit="10" width="97.034" height="22.418"/>
<rect x="54.648" y="502.639" fill="#FFFFFF" stroke="#000000" stroke-miterlimit="10" width="115.833" height="22.418"/>
<rect x="183.857" y="509.057" fill="#FFFFFF" stroke="#000000" stroke-miterlimit="10" width="96.553" height="22.418"/>
<rect x="183.963" y="461.284" fill="#FFFFFF" stroke="#000000" stroke-miterlimit="10" width="83.29" height="22.418"/>
<rect x="310.826" y="479.449" fill="#FFFFFF" stroke="#000000" stroke-miterlimit="10" width="97.034" height="22.418"/>
<rect x="310.826" y="432.428" fill="#FFFFFF" stroke="#000000" stroke-miterlimit="10" width="97.034" height="22.418"/>
<rect x="458.959" y="373.592" fill="#FFFFFF" stroke="#000000" stroke-miterlimit="10" width="97.034" height="22.418"/>
<rect x="267.618" y="375.951" fill="#FFFFFF" stroke="#000000" stroke-miterlimit="10" width="83.29" height="22.418"/>
<rect x="182.297" y="413.901" fill="#FFFFFF" stroke="#000000" stroke-miterlimit="10" width="83.29" height="22.418"/>
<rect x="80.858" y="451.401" fill="#FFFFFF" stroke="#000000" stroke-miterlimit="10" width="83.29" height="22.418"/>
<rect x="54.068" y="415.401" fill="#FFFFFF" stroke="#000000" stroke-miterlimit="10" width="70.913" height="22.418"/>
<rect x="53.818" y="364.983" fill="#FFFFFF" stroke="#000000" stroke-miterlimit="10" width="181.79" height="19.636"/>
<rect x="250.837" y="321.793" fill="#FFFFFF" stroke="#000000" stroke-miterlimit="10" width="241.771" height="22.916"/>
<rect x="405.474" y="149.376" fill="#FFFFFF" stroke="#000000" stroke-miterlimit="10" width="116.854" height="22.916"/>
<rect x="238.483" y="43.041" fill="#FFFFFF" stroke="#000000" stroke-miterlimit="10" width="116.854" height="22.916"/>
<rect x="392.993" y="130.396" fill="none" width="97.5" height="15"/>
<text transform="matrix(1 0 0 1 392.9922 136.7856)" font-family="'MyriadPro-Regular'" font-size="9">model.menu</text>
<g>
	<g>
		<line fill="none" stroke="#000000" stroke-miterlimit="10" x1="243.324" y1="212.414" x2="243.324" y2="234.002"/>
		<g>
			<polygon points="238.366,213.873 243.352,205.237 248.338,213.873 			"/>
		</g>
	</g>
</g>
<g>
	<g>
		<line fill="none" stroke="#000000" stroke-miterlimit="10" x1="206.988" y1="164.267" x2="206.988" y2="182.321"/>
		<g>
			<polygon points="202.03,165.726 207.016,157.091 212.002,165.726 			"/>
		</g>
	</g>
</g>
<g>
	<g>
		<line fill="none" stroke="#000000" stroke-miterlimit="10" x1="126.155" y1="164.267" x2="126.155" y2="182.321"/>
		<g>
			<polygon points="121.197,165.726 126.183,157.091 131.169,165.726 			"/>
		</g>
	</g>
</g>
<rect x="59.233" y="182.321" fill="#FFFFFF" stroke="#000000" stroke-miterlimit="10" width="111.664" height="56.291"/>
<rect x="188.427" y="234.002" fill="#FFFFFF" stroke="#000000" stroke-miterlimit="10" width="116.854" height="22.916"/>
<rect x="187.887" y="182.321" fill="#FFFFFF" stroke="#000000" stroke-miterlimit="10" width="116.854" height="22.916"/>
<rect x="95.72" y="134.175" fill="#FFFFFF" stroke="#000000" stroke-miterlimit="10" width="116.854" height="22.916"/>
<rect x="53.658" y="119.175" fill="none" width="97.5" height="15"/>
<text transform="matrix(1 0 0 1 53.6577 125.5649)" font-family="'MyriadPro-Regular'" font-size="9">model.dialogue</text>
<rect x="51.993" y="307.518" fill="none" width="97.5" height="15"/>
<text transform="matrix(1 0 0 1 51.9927 313.9082)" font-family="'MyriadPro-Regular'" font-size="9">model.planer</text>
<rect x="27.827" y="34.685" fill="none" width="97.5" height="15"/>
<text transform="matrix(1 0 0 1 27.8267 41.0752)" font-family="'MyriadPro-Regular'" font-size="9">model</text>
<g>
	<g>
		<polyline fill="none" stroke="#000000" stroke-miterlimit="10" points="151.158,134.175 151.158,104.126 293.326,103.905 
			293.326,73.133 		"/>
		<g>
			<polygon points="298.284,74.592 293.299,65.957 288.312,74.592 			"/>
		</g>
	</g>
</g>
<polyline fill="none" stroke="#000000" stroke-miterlimit="10" points="293.326,103.905 478.001,103.905 478.001,149.376 "/>
<polyline fill="none" stroke="#000000" stroke-miterlimit="10" points="88.358,415.401 88.358,404 135.485,404 219.981,404 
	219.981,413.901 "/>
<g>
	<g>
		<line fill="none" stroke="#000000" stroke-miterlimit="10" x1="369.471" y1="432.428" x2="369.471" y2="351.885"/>
		<g>
			<polygon points="374.429,353.344 369.443,344.709 364.457,353.344 			"/>
		</g>
	</g>
</g>
<polyline fill="none" stroke="#000000" stroke-miterlimit="10" points="310.93,375.951 310.93,364.983 369.471,364.983 
	511.336,364.983 511.336,373.592 "/>
<polyline fill="none" stroke="#000000" stroke-miterlimit="10" points="485.436,422.11 485.436,409.701 419.722,409.701 
	419.722,364.983 "/>
<rect x="419.722" y="519.396" fill="none" width="146.599" height="26.709"/>
<text transform="matrix(1 0 0 1 464.0703 527.916)"><tspan x="0" y="0" font-family="'MyriadPro-Regular'" font-size="12">&lt;&lt;enum&gt;&gt;</tspan><tspan x="-14.165" y="14.399" font-family="'MyriadPro-Regular'" font-size="12">TrafficLightPhase</tspan></text>
<rect x="432.222" y="473.158" fill="none" width="125.771" height="16.709"/>
<text transform="matrix(1 0 0 1 432.2217 481.6777)" font-family="'MyriadPro-Regular'" font-size="12">PlacedTrafficLightModel</text>
<rect x="442.722" y="428.137" fill="none" width="91.953" height="16.709"/>
<text transform="matrix(1 0 0 1 442.7217 436.6562)" font-family="'MyriadPro-Regular'" font-size="12">TrafficLightModel</text>
<rect x="329.326" y="529.396" fill="none" width="80.29" height="16.709"/>
<text transform="matrix(1 0 0 1 329.3262 537.916)" font-family="'MyriadPro-Regular'" font-size="12">CurveModel</text>
<rect x="61.358" y="509.348" fill="none" width="106.124" height="16.709"/>
<text transform="matrix(1 0 0 1 61.3584 517.8672)" font-family="'MyriadPro-Regular'" font-size="12">PlacedVehicleModel</text>
<rect x="190.63" y="514.766" fill="none" width="90.29" height="16.709"/>
<text transform="matrix(1 0 0 1 190.6299 523.2852)" font-family="'MyriadPro-Regular'" font-size="12">PlacedTileModel</text>
<rect x="198.463" y="466.993" fill="none" width="73.623" height="16.709"/>
<text transform="matrix(1 0 0 1 198.4629 475.5137)" font-family="'MyriadPro-Regular'" font-size="12">TileModel</text>
<rect x="323.326" y="485.158" fill="none" width="80.29" height="16.709"/>
<text transform="matrix(1 0 0 1 323.3262 493.6777)" font-family="'MyriadPro-Regular'" font-size="12">StraightModel</text>
<rect x="326.326" y="438.137" fill="none" width="80.29" height="16.709"/>
<text transform="matrix(1 0 0 1 326.3262 446.6562)" font-family="'MyriadPro-Regular'" font-size="12">RouteModel</text>
<rect x="468.459" y="379.301" fill="none" width="80.29" height="16.709"/>
<text transform="matrix(1 0 0 1 468.459 387.8203)" font-family="'MyriadPro-Regular'" font-size="12">LocationModel</text>
<rect x="274.118" y="381.66" fill="none" width="73.623" height="16.709"/>
<text transform="matrix(1 0 0 1 274.1182 390.1797)" font-family="'MyriadPro-Regular'" font-size="12">WorldModel</text>
<rect x="188.797" y="419.61" fill="none" width="73.623" height="16.709"/>
<text transform="matrix(1 0 0 1 188.7969 428.1309)" font-family="'MyriadPro-Regular'" font-size="12">BaseTileModel</text>
<rect x="88.358" y="458.11" fill="none" width="73.623" height="16.709"/>
<text transform="matrix(1 0 0 1 88.3584 466.6309)" font-family="'MyriadPro-Regular'" font-size="12">VehicleModel</text>
<rect x="59.568" y="421.11" fill="none" width="65.413" height="16.709"/>
<text transform="matrix(1 0 0 1 59.5684 429.6309)" font-family="'MyriadPro-Regular'" font-size="12">TrashModel</text>
<rect x="72.481" y="370.078" fill="none" width="147.5" height="17.082"/>
<text transform="matrix(1 0 0 1 113.0933 378.5977)" font-family="'MyriadPro-Regular'" font-size="12">SourceModel</text>
<rect x="299.524" y="328.438" fill="none" width="147.5" height="17.082"/>
<text transform="matrix(1 0 0 1 341.5527 336.957)" font-family="'MyriadPro-Regular'" font-size="12">PlanerModel</text>
<rect x="387.161" y="156.021" fill="none" width="147.5" height="17.082"/>
<text transform="matrix(1 0 0 1 410.4932 164.54)" font-family="'MyriadPro-Regular'" font-size="12">MenuItemListModel</text>
<rect x="220.171" y="49.685" fill="none" width="147.5" height="17.083"/>
<text transform="matrix(1 0 0 1 277.9966 58.2051)" font-family="'MyriadPro-Regular'" font-size="12">Model</text>
<rect x="64.733" y="191.03" fill="none" width="104.164" height="46.582"/>
<text transform="matrix(1 0 0 1 64.7334 199.5498)"><tspan x="0" y="0" font-family="'MyriadPro-Regular'" font-size="12">NewDialogueModel</tspan><tspan x="0" y="14.4" font-family="'MyriadPro-Regular'" font-size="12">ErrorDialogueModel</tspan><tspan x="0" y="28.8" font-family="'MyriadPro-Regular'" font-size="12">HelpDialogueModel</tspan></text>
<rect x="170.114" y="240.646" fill="none" width="147.5" height="17.082"/>
<text transform="matrix(1 0 0 1 193.5308 249.166)" font-family="'MyriadPro-Regular'" font-size="12">SaveDialogueModel</text>
<rect x="169.574" y="188.966" fill="none" width="147.5" height="17.082"/>
<text transform="matrix(1 0 0 1 192.3306 197.4854)" font-family="'MyriadPro-Regular'" font-size="12">LoadDialogueModel</text>
<rect x="77.407" y="140.819" fill="none" width="147.5" height="17.082"/>
<text transform="matrix(1 0 0 1 112.5654 149.3389)" font-family="'MyriadPro-Regular'" font-size="12">DialogueModel</text>
<g>
	<g>
		<line fill="none" stroke="#000000" stroke-miterlimit="10" x1="243.661" y1="333.251" x2="144.713" y2="333.251"/>
		<g>
			<polygon points="242.202,328.293 250.837,333.278 242.202,338.265 			"/>
		</g>
	</g>
</g>
<line fill="none" stroke="#000000" stroke-miterlimit="10" x1="144.713" y1="333.251" x2="144.713" y2="364.983"/>
<line fill="none" stroke="#000000" stroke-miterlimit="10" x1="369.471" y1="321.793" x2="369.471" y2="103.905"/>
<polygon fill="#FFFFFF" points="359.44,456.026 355.278,462.872 363.409,462.872 "/>
<polygon fill="#FFFFFF" points="359.439,503.027 355.277,509.873 363.408,509.873 "/>
<polygon fill="#FFFFFF" stroke="#000000" stroke-miterlimit="10" points="293.455,65.957 287.932,75.038 298.721,75.038 "/>
<polygon fill="#FFFFFF" stroke="#000000" stroke-miterlimit="10" points="126.284,156.293 120.761,165.375 131.55,165.375 "/>
<polygon fill="#FFFFFF" stroke="#000000" stroke-miterlimit="10" points="207.117,156.293 201.594,165.375 212.383,165.375 "/>
<polygon fill="#FFFFFF" stroke="#000000" stroke-miterlimit="10" points="243.993,205.237 238.47,214.319 249.259,214.319 "/>
<polygon fill="#FFFFFF" stroke="#000000" stroke-miterlimit="10" points="135.614,385.475 130.091,394.556 140.88,394.556 "/>
<polygon fill="#FFFFFF" stroke="#000000" stroke-miterlimit="10" points="116.944,474.118 111.421,483.199 122.21,483.199 "/>
<polygon fill="#FFFFFF" stroke="#000000" stroke-miterlimit="10" points="222.652,436.319 217.129,445.4 227.918,445.4 "/>
<polygon fill="#FFFFFF" stroke="#000000" stroke-miterlimit="10" points="224.071,483.688 218.547,492.77 229.336,492.77 "/>
<polygon fill="#FFFFFF" stroke="#000000" stroke-miterlimit="10" points="359.472,454.909 353.948,463.99 364.737,463.99 "/>
<polygon fill="#FFFFFF" stroke="#000000" stroke-miterlimit="10" points="359.472,501.909 353.948,510.99 364.737,510.99 "/>
<polygon fill="#FFFFFF" stroke="#000000" stroke-miterlimit="10" points="485.564,444.262 480.041,453.343 490.83,453.343 "/>
<polygon fill="#FFFFFF" stroke="#000000" stroke-miterlimit="10" points="369.6,344.651 364.076,353.732 374.865,353.732 "/>
<polygon fill="#FFFFFF" stroke="#000000" stroke-miterlimit="10" points="250.854,333.38 241.773,327.856 241.773,338.646 "/>
</svg>
